<?xml version="1.0" encoding="UTF-8"?>
<svg id="Dominant_Religions" data-name="Dominant Religions" xmlns="http://www.w3.org/2000/svg" viewBox="0 0 1920 1080">
  <defs>
    <style>
      .cls-1 {
        fill: #b71f27;
      }

      .cls-1, .cls-2 {
        stroke-width: 0px;
      }

      .cls-2 {
        fill: #e3b658;
      }
    </style>
  </defs>
  <g>
    <path class="cls-2" d="M1067.4,599.37c-12.16,11.3-26.03,19.83-41.45,25.75-28.7,11.03-57.99,12.74-87.61,4.37-58.24-16.46-97.7-67.31-100.72-125.98-3.2-61.98,34.89-116.52,90.38-136.78,54.49-19.9,107.71-2.36,138.51,26.13-27.62-14.91-56.74-19.12-87.18-11.55-30.44,7.57-54.14,24.9-71.3,51.19-26.65,40.83-24.47,95.99,5.41,135.4,11.73,15.47,26.4,27.36,43.93,35.65,17.59,8.31,36.16,11.96,55.63,11.21,19.39-.75,37.38-6.24,54.4-15.39Z"/>
    <path class="cls-2" d="M1095.49,540.08c-1.76-1.21-3.55-2.39-5.28-3.64-7.03-5.09-14.08-10.16-21.03-15.36-1.47-1.1-2.44-1-3.81.04-7.85,5.95-15.75,11.83-23.66,17.7-.58.43-1.16,1.56-1.94.95-.63-.5.02-1.51.25-2.24,2.87-9.42,5.73-18.85,8.72-28.23.6-1.88.17-2.82-1.39-3.93-7.95-5.69-15.81-11.51-23.68-17.3-.56-.41-1.6-.76-1.37-1.51.28-.92,1.38-.56,2.14-.56,9.63-.02,19.26-.1,28.89.04,2.44.04,3.44-.84,4.12-3.08,2.86-9.35,5.9-18.64,8.88-27.95.2-.61.26-1.29.83-1.77.89.09.82.9,1.01,1.45,3.23,9.61,6.48,19.21,9.62,28.85.59,1.83,1.49,2.49,3.43,2.48,9.78-.09,19.55-.05,29.33-.03.7,0,1.72-.3,1.99.45.35.97-.8,1.22-1.39,1.66-7.98,5.89-15.96,11.8-24.01,17.6-1.35.97-1.47,1.83-1,3.27,2.96,9.01,5.84,18.05,8.73,27.08.39,1.22.69,2.47,1.03,3.7l-.42.33Z"/>
  </g>
  <g id="Layer_2" data-name="Layer 2">
    <path class="cls-2" d="M1558.88,608.43h-44.33v-116.5h-46.28v-44.33h46.28v-46.28h44.33v46.28h46.28v44.33h-46.28v116.5Z"/>
  </g>
  <g>
    <path class="cls-1" d="M342.96,928.93h-25.05v-14.25l23.7-72h16.2v72h7.5v14.25h-7.5v24h-14.85v-24ZM331.71,914.68h11.25v-37.8h-.9l-.9,3.3-9.45,34.5Z"/>
    <path class="cls-1" d="M383.76,903.13v-13.5c6.75-.45,9.9-1.8,11.25-4.95.75-1.5,1.05-3.45,1.05-5.85v-8.85c0-3.15,0-6.6-.6-9.45-.6-2.85-1.95-4.8-4.5-4.8-1.95,0-3.15.9-3.75,3.75-.75,3-1.05,7.65-1.05,15h-15.9c0-6.15.15-14.55,2.85-21.3,2.7-6.6,7.65-11.7,17.85-11.7s15.45,5.25,18.15,10.8,2.85,11.55,2.85,12.9c0,16.35-2.85,24.15-7.8,29.1l-.15.15c7.8,6.15,9.3,17.55,9.3,30.3,0,.45,0,1.5-.15,3.15-.15,3.15-1.05,7.8-2.7,12.6-1.8,4.8-4.8,9.15-9.45,11.7-2.4,1.35-5.25,1.95-8.7,1.95-10.2,0-15.45-5.1-18.3-11.85-2.85-6.6-3.15-15-3.15-21.15h15.9c0,7.35.45,12,1.35,14.85.9,3,2.25,3.9,4.2,3.9,2.55,0,3.9-1.95,4.5-4.65.6-2.7.6-6.15.6-9.3,0-3.45,0-6.6.15-9.45,0-5.4-1.05-9.15-4.5-11.4-1.8-1.05-4.5-1.8-7.95-1.95h-1.35Z"/>
    <path class="cls-1" d="M444.51,886.19c-.15,4.95-1.95,8.4-4.95,10.95-1.5,1.35-3.75,1.95-6.6,1.95-6,0-8.7-3-10.35-6.45-.9-1.8-1.35-3.9-1.35-6.45v-31.95c0-4.8,1.8-8.1,4.95-10.8,1.5-1.35,3.75-1.95,6.75-1.95,5.85,0,8.4,3.3,10.05,6.45.9,1.8,1.35,3.9,1.5,6.3v31.95ZM428.76,952.93l40.5-110.25h9.6l-40.05,110.25h-10.05ZM435.51,854.24c0-1.35-.45-2.55-1.05-3.45-.3-.45-.75-.6-1.5-.6-1.65,0-2.1,1.05-2.55,2.1-.15.6-.3,1.2-.15,1.95v31.95c-.15,1.65.15,4.05,2.7,4.05,2.25,0,2.55-2.4,2.55-4.05v-31.95ZM486.66,941.38c-.15,4.95-1.95,8.25-4.95,10.8-1.5,1.35-3.75,1.95-6.6,1.95-6,0-8.7-3.15-10.35-6.3-.9-1.8-1.35-3.9-1.35-6.45v-31.95c0-4.8,1.8-8.25,4.95-10.95,1.5-1.35,3.75-1.95,6.75-1.95,5.85,0,8.4,3.3,10.05,6.45.9,1.95,1.35,4.05,1.5,6.45v31.95ZM477.66,909.43c0-1.35-.45-2.55-1.05-3.45-.3-.45-.75-.6-1.5-.6-1.65,0-2.1,1.05-2.55,2.1-.15.6-.3,1.2-.15,1.95v31.95c-.15,1.65.3,2.55,1.05,3.45.3.45.9.75,1.65.75,1.35,0,1.8-1.05,2.25-2.1.15-.6.3-1.35.3-2.1v-31.95Z"/>
  </g>
  <g>
    <path class="cls-1" d="M360.54,145.42c0,6.33-3.5,10.82-9.82,10.82s-9.83-4.49-9.83-10.82,3.5-10.82,9.83-10.82,9.82,4.46,9.82,10.82ZM357.65,145.42c0-5.42-2.56-8.77-6.93-8.77s-6.93,3.35-6.93,8.77,2.56,8.77,6.93,8.77,6.93-3.38,6.93-8.77Z"/>
    <path class="cls-1" d="M371.27,139.69v1.96c-2.71-.18-4.76,1.42-4.76,5.06v9.1h-2.59v-15.97h2.59v2.5l1.45-2.14c.66-.45,1.48-.72,2.23-.72.42,0,.78.06,1.08.21Z"/>
    <path class="cls-1" d="M376.96,151.14c0,.54,0,.81.03,1.24.12,1.54.75,1.87,2.77,1.63v1.9c-.75.12-1.48.15-2.2.15-1.99,0-3.01-.81-3.16-2.8-.03-.42-.03-1.08-.03-1.99v-9.31h-2.14v-1.99h2.14v-3.71h2.59v3.71h2.98v1.99h-2.98v9.19Z"/>
    <path class="cls-1" d="M396.8,146.83v8.98h-2.59v-8.8c0-.81,0-1.48-.06-2.29-.15-1.87-1.18-3.32-3.65-3.25-2.5.06-4.61,1.87-4.61,7.32v7.02h-2.59v-22.3h2.59v9.07l1-1.84c1.36-1.05,2.53-1.33,4.16-1.33,3.5,0,5.46,1.87,5.7,4.67.06.81.06,1.45.06,2.74Z"/>
    <path class="cls-1" d="M415.69,147.83c0,4.49-2.5,8.41-7.93,8.41s-7.93-3.92-7.93-8.41,2.5-8.41,7.93-8.41,7.93,3.89,7.93,8.41ZM412.86,147.83c0-3.77-1.87-6.42-5.09-6.42s-5.09,2.65-5.09,6.42,1.87,6.42,5.09,6.42,5.09-2.68,5.09-6.42Z"/>
    <path class="cls-1" d="M432.78,155.81h-2.59v-2.56l-1.21,1.72c-.9.75-2.59,1.27-4.22,1.27-4.67,0-7.26-3.5-7.26-8.17,0-5.91,3.68-8.65,7.8-8.65,1.33,0,3.01.39,3.83,1.06l1.06,1.57v-8.38h2.59v22.15ZM430.19,147.98v-.87c0-4.13-2.59-5.7-4.88-5.7-2.8,0-4.97,2.17-4.97,6.36,0,3.62,1.63,6.48,4.82,6.48,2.65,0,5.03-1.69,5.03-6.27Z"/>
    <path class="cls-1" d="M451.89,147.83c0,4.49-2.5,8.41-7.93,8.41s-7.93-3.92-7.93-8.41,2.5-8.41,7.93-8.41,7.93,3.89,7.93,8.41ZM449.06,147.83c0-3.77-1.87-6.42-5.09-6.42s-5.09,2.65-5.09,6.42,1.87,6.42,5.09,6.42,5.09-2.68,5.09-6.42Z"/>
    <path class="cls-1" d="M466.84,155.81h-3.01l-4.19-6.42-4.16,6.42h-2.98l5.73-8.08-5.51-7.9h3.07l4.01,6.18,4.01-6.18h2.98l-5.61,7.83,5.67,8.14Z"/>
    <path class="cls-1" d="M355.94,177.81l.03.3h-2.59l-.06-.3c-.6-2.98-2.44-5-5.91-5-4.25,0-6.87,3.71-6.87,8.74s2.59,8.8,6.69,8.8c3.47,0,5.3-2.02,5.91-5l.06-.3h2.59l-.03.3c-.39,3.77-3.19,7.05-8.68,7.05-6.06,0-9.43-4.64-9.43-10.73s3.92-10.91,9.83-10.91c5.27,0,8.05,2.98,8.47,7.05Z"/>
    <path class="cls-1" d="M373.03,183v8.98h-2.59v-8.8c0-.81,0-1.48-.06-2.29-.15-1.87-1.18-3.32-3.65-3.25-2.5.06-4.61,1.87-4.61,7.32v7.02h-2.59v-22.3h2.59v9.07l1-1.84c1.36-1.05,2.53-1.33,4.16-1.33,3.5,0,5.46,1.87,5.7,4.67.06.81.06,1.45.06,2.74Z"/>
    <path class="cls-1" d="M384.76,175.86v1.96c-2.71-.18-4.76,1.42-4.76,5.06v9.1h-2.59v-15.97h2.59v2.5l1.45-2.14c.66-.45,1.48-.72,2.23-.72.42,0,.78.06,1.08.21Z"/>
    <path class="cls-1" d="M390.3,172.42c0,.93-.72,1.66-1.66,1.66s-1.66-.72-1.66-1.66.72-1.66,1.66-1.66,1.66.72,1.66,1.66ZM387.35,191.98v-15.97h2.59v15.97h-2.59Z"/>
    <path class="cls-1" d="M405.04,180.56h-2.71c-.36-1.87-1.51-2.98-3.38-2.98s-2.65,1-2.65,2.38c0,1.6,1.33,2.23,3.5,2.8,3.68.96,5.42,2.41,5.42,5.12,0,3.01-2.56,4.52-5.94,4.52s-5.79-1.51-6.27-5.12h2.71c.42,2.32,1.9,3.13,3.74,3.13,1.72,0,3.1-.78,3.1-2.32s-1.08-2.35-3.77-3.07c-2.86-.78-5.15-1.96-5.15-4.76s2.23-4.67,5.51-4.67c3.59,0,5.54,2.05,5.88,4.97Z"/>
    <path class="cls-1" d="M411.46,187.31c0,.54,0,.81.03,1.24.12,1.54.75,1.87,2.77,1.63v1.9c-.75.12-1.48.15-2.2.15-1.99,0-3.01-.81-3.16-2.8-.03-.42-.03-1.08-.03-1.99v-9.31h-2.14v-1.99h2.14v-3.71h2.59v3.71h2.98v1.99h-2.98v9.19Z"/>
    <path class="cls-1" d="M420.74,172.42c0,.93-.72,1.66-1.66,1.66s-1.66-.72-1.66-1.66.72-1.66,1.66-1.66,1.66.72,1.66,1.66ZM417.79,191.98v-15.97h2.59v15.97h-2.59Z"/>
    <path class="cls-1" d="M433.85,189.69l-.87,1.72c-1.08.75-2.47.99-4.01.99-2.89,0-5.15-1.6-5.15-4.55,0-3.62,2.71-5.48,8.98-5.48h1.02v-.42c0-.69,0-1.33-.06-1.93-.12-1.48-.96-2.44-3.1-2.44s-3.25,1.18-3.44,3.38h-2.71c.24-3.41,2.62-5.36,6.15-5.36,3.8,0,5.39,1.6,5.67,4.22.06.63.09,1.42.09,2.11v6c0,1.21.06,2.29.3,4.07h-2.59l-.27-2.29ZM433.82,185.92v-1.63c-4.4-.33-7.17.6-7.17,3.34,0,1.93,1.24,2.77,3.19,2.77,2.41,0,3.98-1.6,3.98-4.49Z"/>
    <path class="cls-1" d="M454.47,183v8.98h-2.59v-8.8c0-.81,0-1.48-.06-2.29-.15-1.87-1.18-3.25-3.65-3.25s-4.61,1.87-4.61,7.32v7.02h-2.59v-15.97h2.59v2.74l1-1.84c1.36-1.05,2.53-1.33,4.16-1.33,3.5,0,5.46,1.87,5.7,4.67.06.81.06,1.45.06,2.74Z"/>
    <path class="cls-1" d="M469.35,180.56h-2.71c-.36-1.87-1.51-2.98-3.38-2.98s-2.65,1-2.65,2.38c0,1.6,1.33,2.23,3.5,2.8,3.68.96,5.42,2.41,5.42,5.12,0,3.01-2.56,4.52-5.94,4.52s-5.79-1.51-6.27-5.12h2.71c.42,2.32,1.9,3.13,3.74,3.13,1.72,0,3.1-.78,3.1-2.32s-1.08-2.35-3.77-3.07c-2.86-.78-5.15-1.96-5.15-4.76s2.23-4.67,5.51-4.67c3.59,0,5.54,2.05,5.88,4.97Z"/>
  </g>
  <g>
    <path class="cls-1" d="M927.75,155.81h-2.59v-10.7c0-2.59,0-5.48.06-7.75-.69,2.26-1.66,5.18-2.53,7.71l-3.68,10.73h-3.25l-3.74-10.79c-.84-2.47-1.81-5.36-2.47-7.59.06,2.26.06,5.12.06,7.68v10.7h-2.59v-20.79h4.28l6.15,18.59,6.12-18.59h4.19v20.79Z"/>
    <path class="cls-1" d="M945.59,155.81h-2.59v-2.71l-1,1.87c-1.36.99-2.53,1.27-4.16,1.27-3.32,0-5.24-1.87-5.61-4.07-.12-.81-.15-1.45-.15-2.74v-9.58h2.59v9.1c0,.51.03,1.39.12,2.2.24,1.81,1.54,3.04,3.71,3.04,2.5,0,4.49-1.87,4.49-7.32v-7.02h2.59v15.97Z"/>
    <path class="cls-1" d="M960.69,144.39h-2.71c-.36-1.87-1.51-2.98-3.38-2.98s-2.65,1-2.65,2.38c0,1.6,1.33,2.23,3.5,2.8,3.68.96,5.42,2.41,5.42,5.12,0,3.01-2.56,4.52-5.94,4.52s-5.79-1.51-6.27-5.12h2.71c.42,2.32,1.9,3.13,3.74,3.13,1.72,0,3.1-.78,3.1-2.32s-1.08-2.35-3.77-3.07c-2.86-.78-5.15-1.96-5.15-4.76s2.23-4.67,5.51-4.67c3.59,0,5.54,2.05,5.88,4.97Z"/>
    <path class="cls-1" d="M966.48,151.23c0,.48,0,1,.03,1.51.06,1.03.54,1.36,1.96,1.21v1.87c-.57.09-1.24.12-1.84.12-1.51,0-2.62-.48-2.71-2.5-.03-.54-.03-1.24-.03-2.11v-17.66h2.59v17.57Z"/>
    <path class="cls-1" d="M974.41,136.25c0,.93-.72,1.66-1.66,1.66s-1.66-.72-1.66-1.66.72-1.66,1.66-1.66,1.66.72,1.66,1.66ZM971.45,155.81v-15.97h2.59v15.97h-2.59Z"/>
    <path class="cls-1" d="M1000.02,146.05v9.76h-2.59v-8.56c0-1.42-.03-2.29-.12-3.1-.24-1.81-1.39-2.68-3.19-2.68-2.02,0-3.5,1.6-3.5,6.45v7.9h-2.59v-8.56c0-1.42-.03-2.29-.12-3.1-.24-1.81-1.39-2.68-3.19-2.68-2.02,0-3.5,1.6-3.5,6.45v7.9h-2.59v-15.97h2.59v2.32l1.03-1.81c.81-.66,1.96-.93,3.38-.93,2.44,0,4.01,1.24,4.61,2.98l1.42-2.05c.81-.66,1.96-.93,3.38-.93,2.86,0,4.49,1.69,4.85,3.89.12.81.15,1.45.15,2.74Z"/>
    <path class="cls-1" d="M1014.91,144.39h-2.71c-.36-1.87-1.51-2.98-3.38-2.98s-2.65,1-2.65,2.38c0,1.6,1.33,2.23,3.5,2.8,3.68.96,5.42,2.41,5.42,5.12,0,3.01-2.56,4.52-5.94,4.52s-5.79-1.51-6.27-5.12h2.71c.42,2.32,1.9,3.13,3.74,3.13,1.72,0,3.1-.78,3.1-2.32s-1.08-2.35-3.77-3.07c-2.86-.78-5.15-1.96-5.15-4.76s2.23-4.67,5.51-4.67c3.59,0,5.54,2.05,5.88,4.97Z"/>
  </g>
  <g>
    <path class="cls-1" d="M1485.57,141.17c0,3.53-2.38,5.64-5.39,6.03-.93.12-1.66.12-2.71.12h-3.86v8.5h-2.59v-20.79h6.45c1.05,0,1.78,0,2.71.12,3.32.42,5.39,2.5,5.39,6.03ZM1482.8,141.17c0-2.41-1.3-3.5-2.77-3.83-.57-.12-1.39-.15-2.32-.15h-4.1v7.96h4.1c.93,0,1.75-.03,2.32-.15,1.48-.33,2.77-1.42,2.77-3.83Z"/>
    <path class="cls-1" d="M1495.61,139.69v1.96c-2.71-.18-4.76,1.42-4.76,5.06v9.1h-2.59v-15.97h2.59v2.5l1.45-2.14c.66-.45,1.48-.72,2.23-.72.42,0,.78.06,1.08.21Z"/>
    <path class="cls-1" d="M1512.36,147.83c0,4.49-2.5,8.41-7.93,8.41s-7.93-3.92-7.93-8.41,2.5-8.41,7.93-8.41,7.93,3.89,7.93,8.41ZM1509.53,147.83c0-3.77-1.87-6.42-5.09-6.42s-5.09,2.65-5.09,6.42,1.87,6.42,5.09,6.42,5.09-2.68,5.09-6.42Z"/>
    <path class="cls-1" d="M1518.6,151.14c0,.54,0,.81.03,1.24.12,1.54.75,1.87,2.77,1.63v1.9c-.75.12-1.48.15-2.2.15-1.99,0-3.01-.81-3.16-2.8-.03-.42-.03-1.08-.03-1.99v-9.31h-2.14v-1.99h2.14v-3.71h2.59v3.71h2.98v1.99h-2.98v9.19Z"/>
    <path class="cls-1" d="M1537.59,148.61h-11.57c.24,4.22,2.23,5.63,4.58,5.63,2.08,0,3.77-1.3,4.13-3.59h2.71c-.63,3.86-3.68,5.58-6.96,5.58-4.16,0-7.26-2.71-7.26-8.35,0-5.18,3.22-8.47,7.59-8.47s6.84,3.29,6.84,7.96c0,.24,0,.66-.06,1.24ZM1526.05,146.62h8.98c-.24-3.32-1.66-5.21-4.28-5.21s-4.4,1.81-4.7,5.21Z"/>
    <path class="cls-1" d="M1551.6,144.39h-2.71c-.36-1.87-1.51-2.98-3.38-2.98s-2.65,1-2.65,2.38c0,1.6,1.33,2.23,3.5,2.8,3.68.96,5.42,2.41,5.42,5.12,0,3.01-2.56,4.52-5.94,4.52s-5.79-1.51-6.27-5.12h2.71c.42,2.32,1.9,3.13,3.74,3.13,1.72,0,3.1-.78,3.1-2.32s-1.08-2.35-3.77-3.07c-2.86-.78-5.15-1.96-5.15-4.76s2.23-4.67,5.51-4.67c3.59,0,5.54,2.05,5.88,4.97Z"/>
    <path class="cls-1" d="M1558.02,151.14c0,.54,0,.81.03,1.24.12,1.54.75,1.87,2.77,1.63v1.9c-.75.12-1.48.15-2.2.15-1.99,0-3.01-.81-3.16-2.8-.03-.42-.03-1.08-.03-1.99v-9.31h-2.14v-1.99h2.14v-3.71h2.59v3.71h2.98v1.99h-2.98v9.19Z"/>
    <path class="cls-1" d="M1573.24,153.52l-.87,1.72c-1.08.75-2.47.99-4.01.99-2.89,0-5.15-1.6-5.15-4.55,0-3.62,2.71-5.48,8.98-5.48h1.02v-.42c0-.69,0-1.33-.06-1.93-.12-1.48-.96-2.44-3.1-2.44s-3.25,1.18-3.44,3.38h-2.71c.24-3.41,2.62-5.36,6.15-5.36,3.8,0,5.39,1.6,5.67,4.22.06.63.09,1.42.09,2.11v6c0,1.21.06,2.29.3,4.07h-2.59l-.27-2.29ZM1573.21,149.75v-1.63c-4.4-.33-7.17.6-7.17,3.34,0,1.93,1.24,2.77,3.19,2.77,2.41,0,3.98-1.6,3.98-4.49Z"/>
    <path class="cls-1" d="M1593.86,146.83v8.98h-2.59v-8.8c0-.81,0-1.48-.06-2.29-.15-1.87-1.18-3.25-3.65-3.25s-4.61,1.87-4.61,7.32v7.02h-2.59v-15.97h2.59v2.74l.99-1.84c1.36-1.05,2.53-1.33,4.16-1.33,3.5,0,5.46,1.87,5.7,4.67.06.81.06,1.45.06,2.74Z"/>
    <path class="cls-1" d="M1601.33,151.14c0,.54,0,.81.03,1.24.12,1.54.75,1.87,2.77,1.63v1.9c-.75.12-1.48.15-2.2.15-1.99,0-3.01-.81-3.16-2.8-.03-.42-.03-1.08-.03-1.99v-9.31h-2.14v-1.99h2.14v-3.71h2.59v3.71h2.98v1.99h-2.98v9.19Z"/>
    <path class="cls-1" d="M1489.32,177.81l.03.3h-2.59l-.06-.3c-.6-2.98-2.44-5-5.91-5-4.25,0-6.87,3.71-6.87,8.74s2.59,8.8,6.69,8.8c3.47,0,5.3-2.02,5.91-5l.06-.3h2.59l-.03.3c-.39,3.77-3.19,7.05-8.68,7.05-6.06,0-9.43-4.64-9.43-10.73s3.92-10.91,9.83-10.91c5.27,0,8.05,2.98,8.47,7.05Z"/>
    <path class="cls-1" d="M1506.41,183v8.98h-2.59v-8.8c0-.81,0-1.48-.06-2.29-.15-1.87-1.18-3.32-3.65-3.25-2.5.06-4.61,1.87-4.61,7.32v7.02h-2.59v-22.3h2.59v9.07l1-1.84c1.36-1.05,2.53-1.33,4.16-1.33,3.5,0,5.46,1.87,5.7,4.67.06.81.06,1.45.06,2.74Z"/>
    <path class="cls-1" d="M1518.13,175.86v1.96c-2.71-.18-4.76,1.42-4.76,5.06v9.1h-2.59v-15.97h2.59v2.5l1.45-2.14c.66-.45,1.48-.72,2.23-.72.42,0,.78.06,1.08.21Z"/>
    <path class="cls-1" d="M1523.68,172.42c0,.93-.72,1.66-1.66,1.66s-1.66-.72-1.66-1.66.72-1.66,1.66-1.66,1.66.72,1.66,1.66ZM1520.73,191.98v-15.97h2.59v15.97h-2.59Z"/>
    <path class="cls-1" d="M1538.42,180.56h-2.71c-.36-1.87-1.51-2.98-3.38-2.98s-2.65,1-2.65,2.38c0,1.6,1.33,2.23,3.5,2.8,3.68.96,5.42,2.41,5.42,5.12,0,3.01-2.56,4.52-5.94,4.52s-5.79-1.51-6.27-5.12h2.71c.42,2.32,1.9,3.13,3.74,3.13,1.72,0,3.1-.78,3.1-2.32s-1.08-2.35-3.77-3.07c-2.86-.78-5.15-1.96-5.15-4.76s2.23-4.67,5.51-4.67c3.59,0,5.54,2.05,5.88,4.97Z"/>
    <path class="cls-1" d="M1544.84,187.31c0,.54,0,.81.03,1.24.12,1.54.75,1.87,2.77,1.63v1.9c-.75.12-1.48.15-2.2.15-1.99,0-3.01-.81-3.16-2.8-.03-.42-.03-1.08-.03-1.99v-9.31h-2.14v-1.99h2.14v-3.71h2.59v3.71h2.98v1.99h-2.98v9.19Z"/>
    <path class="cls-1" d="M1554.12,172.42c0,.93-.72,1.66-1.66,1.66s-1.66-.72-1.66-1.66.72-1.66,1.66-1.66,1.66.72,1.66,1.66ZM1551.17,191.98v-15.97h2.59v15.97h-2.59Z"/>
    <path class="cls-1" d="M1567.23,189.69l-.87,1.72c-1.08.75-2.47.99-4.01.99-2.89,0-5.15-1.6-5.15-4.55,0-3.62,2.71-5.48,8.98-5.48h1.02v-.42c0-.69,0-1.33-.06-1.93-.12-1.48-.96-2.44-3.1-2.44s-3.25,1.18-3.44,3.38h-2.71c.24-3.41,2.62-5.36,6.15-5.36,3.8,0,5.39,1.6,5.67,4.22.06.63.09,1.42.09,2.11v6c0,1.21.06,2.29.3,4.07h-2.59l-.27-2.29ZM1567.2,185.92v-1.63c-4.4-.33-7.17.6-7.17,3.34,0,1.93,1.24,2.77,3.19,2.77,2.41,0,3.98-1.6,3.98-4.49Z"/>
    <path class="cls-1" d="M1587.84,183v8.98h-2.59v-8.8c0-.81,0-1.48-.06-2.29-.15-1.87-1.18-3.25-3.65-3.25s-4.61,1.87-4.61,7.32v7.02h-2.59v-15.97h2.59v2.74l1-1.84c1.36-1.05,2.53-1.33,4.16-1.33,3.5,0,5.46,1.87,5.7,4.67.06.81.06,1.45.06,2.74Z"/>
    <path class="cls-1" d="M1602.73,180.56h-2.71c-.36-1.87-1.51-2.98-3.38-2.98s-2.65,1-2.65,2.38c0,1.6,1.33,2.23,3.5,2.8,3.68.96,5.42,2.41,5.42,5.12,0,3.01-2.56,4.52-5.94,4.52s-5.79-1.51-6.27-5.12h2.71c.42,2.32,1.9,3.13,3.74,3.13,1.72,0,3.1-.78,3.1-2.32s-1.08-2.35-3.77-3.07c-2.86-.78-5.15-1.96-5.15-4.76s2.23-4.67,5.51-4.67c3.59,0,5.54,2.05,5.88,4.97Z"/>
  </g>
  <g>
    <path class="cls-1" d="M910.11,890.98v-13.5c6.75-.45,9.9-1.8,11.25-4.95.75-1.5,1.05-3.45,1.05-5.85v-8.85c0-3.15,0-6.6-.6-9.45-.6-2.85-1.95-4.8-4.5-4.8-1.95,0-3.15.9-3.75,3.75-.75,3-1.05,7.65-1.05,15h-15.9c0-6.15.15-14.55,2.85-21.3,2.7-6.6,7.65-11.7,17.85-11.7s15.45,5.25,18.15,10.8,2.85,11.55,2.85,12.9c0,16.35-2.85,24.15-7.8,29.1l-.15.15c7.8,6.15,9.3,17.55,9.3,30.3,0,.45,0,1.5-.15,3.15-.15,3.15-1.05,7.8-2.7,12.6-1.8,4.8-4.8,9.15-9.45,11.7-2.4,1.35-5.25,1.95-8.7,1.95-10.2,0-15.45-5.1-18.3-11.85-2.85-6.6-3.15-15-3.15-21.15h15.9c0,7.35.45,12,1.35,14.85.9,3,2.25,3.9,4.2,3.9,2.55,0,3.9-1.95,4.5-4.65.6-2.7.6-6.15.6-9.3,0-3.45,0-6.6.15-9.45,0-5.4-1.05-9.15-4.5-11.4-1.8-1.05-4.5-1.8-7.95-1.95h-1.35Z"/>
    <path class="cls-1" d="M960.36,890.98v-13.5c6.75-.45,9.9-1.8,11.25-4.95.75-1.5,1.05-3.45,1.05-5.85v-8.85c0-3.15,0-6.6-.6-9.45-.6-2.85-1.95-4.8-4.5-4.8-1.95,0-3.15.9-3.75,3.75-.75,3-1.05,7.65-1.05,15h-15.9c0-6.15.15-14.55,2.85-21.3,2.7-6.6,7.65-11.7,17.85-11.7s15.45,5.25,18.15,10.8,2.85,11.55,2.85,12.9c0,16.35-2.85,24.15-7.8,29.1l-.15.15c7.8,6.15,9.3,17.55,9.3,30.3,0,.45,0,1.5-.15,3.15-.15,3.15-1.05,7.8-2.7,12.6-1.8,4.8-4.8,9.15-9.45,11.7-2.4,1.35-5.25,1.95-8.7,1.95-10.2,0-15.45-5.1-18.3-11.85-2.85-6.6-3.15-15-3.15-21.15h15.9c0,7.35.45,12,1.35,14.85.9,3,2.25,3.9,4.2,3.9,2.55,0,3.9-1.95,4.5-4.65.6-2.7.6-6.15.6-9.3,0-3.45,0-6.6.15-9.45,0-5.4-1.05-9.15-4.5-11.4-1.8-1.05-4.5-1.8-7.95-1.95h-1.35Z"/>
    <path class="cls-1" d="M1021.11,874.04c-.15,4.95-1.95,8.4-4.95,10.95-1.5,1.35-3.75,1.95-6.6,1.95-6,0-8.7-3-10.35-6.45-.9-1.8-1.35-3.9-1.35-6.45v-31.95c0-4.8,1.8-8.1,4.95-10.8,1.5-1.35,3.75-1.95,6.75-1.95,5.85,0,8.4,3.3,10.05,6.45.9,1.8,1.35,3.9,1.5,6.3v31.95ZM1005.36,940.78l40.5-110.25h9.6l-40.05,110.25h-10.05ZM1012.11,842.09c0-1.35-.45-2.55-1.05-3.45-.3-.45-.75-.6-1.5-.6-1.65,0-2.1,1.05-2.55,2.1-.15.6-.3,1.2-.15,1.95v31.95c-.15,1.65.15,4.05,2.7,4.05,2.25,0,2.55-2.4,2.55-4.05v-31.95ZM1063.26,929.23c-.15,4.95-1.95,8.25-4.95,10.8-1.5,1.35-3.75,1.95-6.6,1.95-6,0-8.7-3.15-10.35-6.3-.9-1.8-1.35-3.9-1.35-6.45v-31.95c0-4.8,1.8-8.25,4.95-10.95,1.5-1.35,3.75-1.95,6.75-1.95,5.85,0,8.4,3.3,10.05,6.45.9,1.95,1.35,4.05,1.5,6.45v31.95ZM1054.26,897.28c0-1.35-.45-2.55-1.05-3.45-.3-.45-.75-.6-1.5-.6-1.65,0-2.1,1.05-2.55,2.1-.15.6-.3,1.2-.15,1.95v31.95c-.15,1.65.3,2.55,1.05,3.45.3.45.9.75,1.65.75,1.35,0,1.8-1.05,2.25-2.1.15-.6.3-1.35.3-2.1v-31.95Z"/>
  </g>
  <g>
    <path class="cls-1" d="M1467.45,865.49v-7.65c0-7.35,1.05-14.55,4.2-19.8,3.15-5.25,8.55-8.7,17.4-8.7,8.25,0,13.8,3.15,17.1,7.95,3.3,4.95,4.5,11.85,4.5,19.5,0,11.25-4.2,24.6-9.45,37.05-5.4,12.6-11.7,23.85-15.9,30.9h25.65v16.05h-43.95v-16.05c4.95-7.65,9.45-15.45,13.5-23.25,3.45-6.6,6.75-14.1,9.3-21.75,2.55-7.65,4.5-15.15,4.65-21.9,0-3-.15-6.45-.9-9s-2.1-4.5-4.5-4.5c-2.25,0-3.6,1.65-4.35,4.05-.75,2.55-1.05,5.85-1.05,9.45v7.65h-16.2Z"/>
    <path class="cls-1" d="M1564.64,918.13c-.15,4.5-1.05,8.55-2.7,12-1.35,3-3.45,5.85-6.45,8.1-3,2.4-7.05,3.75-12.45,3.75s-9.6-1.35-12.6-3.75c-3-2.25-4.95-5.1-6.3-8.1-1.65-3.45-2.55-7.5-2.7-12v-64.95c.15-4.35,1.05-8.4,2.7-11.85,1.35-3,3.3-6,6.3-8.25s7.2-3.75,12.6-3.75,9.45,1.5,12.45,3.75c3,2.25,5.1,5.25,6.45,8.25,1.65,3.45,2.55,7.5,2.7,11.85v64.95ZM1548.44,853.19c0-3-.6-5.1-2.1-6.9-.75-.75-1.95-1.2-3.3-1.2-2.85,0-4.2,2.1-4.8,4.05-.45,1.2-.6,2.55-.6,4.05v64.95c0,3.15.75,5.25,2.25,6.9.75.75,1.8,1.2,3.15,1.2,2.85,0,4.2-1.8,4.8-4.05.45-1.05.6-2.4.6-4.05v-64.95Z"/>
    <path class="cls-1" d="M1596.89,874.04c-.15,4.95-1.95,8.4-4.95,10.95-1.5,1.35-3.75,1.95-6.6,1.95-6,0-8.7-3-10.35-6.45-.9-1.8-1.35-3.9-1.35-6.45v-31.95c0-4.8,1.8-8.1,4.95-10.8,1.5-1.35,3.75-1.95,6.75-1.95,5.85,0,8.4,3.3,10.05,6.45.9,1.8,1.35,3.9,1.5,6.3v31.95ZM1581.14,940.78l40.5-110.25h9.6l-40.05,110.25h-10.05ZM1587.89,842.09c0-1.35-.45-2.55-1.05-3.45-.3-.45-.75-.6-1.5-.6-1.65,0-2.1,1.05-2.55,2.1-.15.6-.3,1.2-.15,1.95v31.95c-.15,1.65.15,4.05,2.7,4.05,2.25,0,2.55-2.4,2.55-4.05v-31.95ZM1639.04,929.23c-.15,4.95-1.95,8.25-4.95,10.8-1.5,1.35-3.75,1.95-6.6,1.95-6,0-8.7-3.15-10.35-6.3-.9-1.8-1.35-3.9-1.35-6.45v-31.95c0-4.8,1.8-8.25,4.95-10.95,1.5-1.35,3.75-1.95,6.75-1.95,5.85,0,8.4,3.3,10.05,6.45.9,1.95,1.35,4.05,1.5,6.45v31.95ZM1630.04,897.28c0-1.35-.45-2.55-1.05-3.45-.3-.45-.75-.6-1.5-.6-1.65,0-2.1,1.05-2.55,2.1-.15.6-.3,1.2-.15,1.95v31.95c-.15,1.65.3,2.55,1.05,3.45.3.45.9.75,1.65.75,1.35,0,1.8-1.05,2.25-2.1.15-.6.3-1.35.3-2.1v-31.95Z"/>
  </g>
  <g>
    <path class="cls-2" d="M518.51,452.71l-15.97,15.99-.97.95,16.94,16.94,16.94-16.94-.95-.97-15.99-15.97ZM521.18,472.25c-.78.79-1.83,1.15-2.86,1.1,0,0-.01,0-.01-.01-.91-.04-1.77-.41-2.47-1.09-1.47-1.47-1.46-3.86.01-5.35.93-.91,2.2-1.27,3.38-1.04h.03c.71.15,1.38.49,1.92,1.04,1.47,1.49,1.49,3.87,0,5.35Z"/>
    <path class="cls-2" d="M534.49,430.93l.97-.95-16.95-16.95-16.94,16.95,16.94,16.94,15.99-15.99ZM518.29,433.74c-.9-.04-1.77-.41-2.45-1.09-1.47-1.47-1.47-3.86,0-5.35.93-.91,2.21-1.27,3.4-1.04h.01c.71.15,1.38.49,1.94,1.04,1.47,1.49,1.47,3.87,0,5.35-.79.79-1.83,1.15-2.86,1.1t-.03-.01Z"/>
    <path class="cls-2" d="M538.35,432.87l-.95.97-15.99,15.99,16.94,16.94,16.94-16.95-16.94-16.94ZM537.64,453.89s-.01,0-.03,0c-.9-.04-1.77-.42-2.46-1.1-1.47-1.47-1.47-3.86,0-5.33.93-.93,2.21-1.27,3.4-1.04h.01c.71.14,1.38.49,1.94,1.04,1.47,1.47,1.47,3.86,0,5.33-.79.79-1.83,1.16-2.86,1.1Z"/>
    <path class="cls-2" d="M499.63,433.82l-.69-.68v-33.1h-7.59v2.73h-3.15v-2.73h-6.48v3.63h-31.05v-16.56h8.8v-20.22h-8.8v-18.78h.62v.44h7.74v-17.94h-7.74v.44h-.62v-14.97h8.94v-14.14h0v-1.02h-3.02v-1.63h3.02v-1.02h0v-14.14h-44.57l9.94-15.62h-48.03l9.95,15.62h-44.57v14.14h0v1.02h3.02v1.63h-3.02v1.02h0v14.14h8.95v50.81h-9.1v20.22h9.1v16.56h-31.21v-3.63h-6.48v2.73h-4.26v-2.73h-6.48v33.11l-.67.68-15.99,15.99,16.66,16.66v39.57h6.48v-2.73h4.26v2.73h6.48v-3h31.21v88.74h-.62v-.62h-7.74v25.41h7.74v-.63h.62v55.37h-9.1v13.64h.15v8.42h43.05l-1.36,1.36,16.94,16.94,15.99-15.99.97-.95-1.36-1.36h43.05v-22.06h-.15s-8.8,0-8.8,0v-55.37h.65v.63h7.74v-25.41h-7.74v.63h-.65v-88.74h31.05v3h6.48v-2.73h3.15v2.73h7.59v-39.56l.69-.7,15.99-15.97-15.99-16ZM302.86,453.86c-.14,0-.29.03-.43.02-.01.01-.01,0-.03,0-.9-.04-1.77-.42-2.46-1.1-1.47-1.47-1.47-3.86,0-5.33.8-.8,1.87-1.14,2.91-1.07v7.49ZM467.17,417.31l-12.19,12.19-12.19-12.19h24.39ZM384.68,546.66l.11.11.12-.12,12.85,12.86h0s-15.84,15.84-15.84,15.84l-12.97-12.97,15.73-15.71ZM384.67,538.94l-15.71-15.71,12.99-12.97,15.82,15.82-12.85,12.86-.12-.12-.12.12ZM397.76,598.89l-12.85,12.86-.12-.12-.11.12-15.73-15.73,12.97-12.97,15.84,15.84ZM385.79,579.21l15.84-15.84,15.84,15.84-15.84,15.82-15.84-15.82ZM388.78,542.8h0s12.85-12.86,12.85-12.86l12.86,12.86h0s-12.86,12.85-12.86,12.85l-12.85-12.85ZM385.79,506.4l15.84-15.84,15.84,15.84h0s-15.84,15.82-15.84,15.82l-15.84-15.82ZM398.9,451.19h-25.21l11.11-11.11,3.86-3.86,10.24-10.24v25.21ZM398.9,456.64v23.48l-10.24-10.24-13.23-13.23h0s23.48,0,23.48,0ZM397.78,486.71l-15.84,15.82-12.97-12.97,15.84-15.82,12.97,12.97ZM378.08,506.4l-13.15,13.15v-26.3l13.15,13.15ZM380.82,542.8l-15.89,15.89v-31.78l15.89,15.89ZM378.08,579.21l-13.15,13.14v-26.28l13.15,13.15ZM380.82,615.61h0s-15.89,15.89-15.89,15.89v-31.8l15.89,15.9ZM384.68,619.46l.11.12.12-.12,12.85,12.86h0s-15.84,15.84-15.84,15.84l-12.97-12.97,15.73-15.73ZM388.78,615.61h0s12.85-12.86,12.85-12.86l12.86,12.86h0s-12.86,12.85-12.86,12.85l-12.85-12.85ZM405.49,632.32l12.85-12.86.12.12.11-.12,15.73,15.73-12.97,12.97-15.84-15.84h0ZM418.46,611.63l-.12.12-12.85-12.86h0s15.84-15.84,15.84-15.84l12.97,12.97-15.73,15.73-.11-.12ZM405.49,559.51h0s12.85-12.86,12.85-12.86l.12.12.12-.11,15.71,15.71-12.97,12.97-15.84-15.84ZM418.46,538.82l-.12.12-12.85-12.86,15.84-15.82,12.97,12.97-15.71,15.71-.12-.12ZM421.31,502.54l-15.82-15.82,12.97-12.97,15.82,15.82-12.97,12.97ZM414.6,469.88l-10.24,10.24v-23.48h23.48,0s-13.23,13.24-13.23,13.24ZM404.35,451.19v-25.21l10.24,10.24,3.86,3.86,11.11,11.11h-25.21ZM422.32,436.22l15.82-15.84,12.99,12.99-15.84,15.82-12.97-12.97ZM437.03,411.56l-11.87-11.85,11.87-11.87v23.72ZM434.29,416.52l-15.84,15.84-12.97-12.97,15.84-15.84,12.97,12.97ZM401.62,415.52l-15.84-15.82,12.59-12.59h6.49l12.59,12.59-15.84,15.82ZM418.46,359.33l-.11.11-12.86-12.86,15.84-15.82,12.97,12.97-15.73,15.71-.11-.11ZM425.17,326.89l10.8-10.8h1.06v22.67l-11.87-11.87ZM421.31,323.03l-6.94-6.94h13.9l-6.96,6.94ZM417.46,326.89h0s-15.84,15.82-15.84,15.82l-15.84-15.82,10.8-10.8h10.07l10.8,10.8ZM381.94,323.03l-6.96-6.94h13.9l-6.94,6.94ZM378.08,326.89l-13.15,13.15v-23.95h2.35l10.8,10.8ZM381.94,330.75l15.82,15.82-12.86,12.86-.11-.11-.11.11-15.73-15.71,12.99-12.97ZM388.76,363.3l12.86-12.86,12.86,12.86-3.59,3.59h-18.54l-3.59-3.59ZM390.66,387.11l-8.73,8.73-8.73-8.73h17.46ZM397.76,419.39l-12.97,12.97-15.84-15.84,12.97-12.97,15.84,15.84ZM380.93,436.22l-12.97,12.97-15.82-15.82,12.97-12.99,15.82,15.84ZM364.1,453.05l-15.82,15.82-15.84-15.82,15.84-15.84,15.82,15.84ZM367.96,456.91l12.97,12.97-15.82,15.82-12.97-12.97,15.82-15.82ZM364.93,638.87l13.15,13.15-13.15,13.14v-26.28ZM381.93,655.86l15.47,15.47h-25.94l-2.5-2.5,12.97-12.97ZM385.79,652.02l15.84-15.84,15.84,15.84-15.84,15.82-15.84-15.82ZM421.32,655.86l12.97,12.97-2.5,2.5h-25.94l15.47-15.47ZM425.18,652.02l11.85-11.87v23.72l-11.85-11.85ZM422.43,615.61l14.61-14.62v29.23l-14.61-14.61ZM425.18,579.21l11.85-11.87v23.72l-11.85-11.85ZM422.43,542.8l14.61-14.61v29.22l-14.61-14.61ZM425.17,506.4l11.87-11.87v23.73l-11.87-11.87ZM422.32,469.88l12.97-12.97,15.82,15.82-12.97,12.97-15.82-15.82ZM439.15,453.05h0s15.82-15.84,15.82-15.84h0s15.84,15.84,15.84,15.84h0s-15.84,15.82-15.84,15.82l-15.82-15.82ZM421.32,395.84l-8.73-8.73h17.46l-8.73,8.73ZM426.02,366.89l-3.59-3.59,14.61-14.61v18.2h-11.02ZM364.93,347.41l15.89,15.89-3.59,3.59h-12.3v-19.48ZM365.49,387.11l12.59,12.59h0s-12.97,12.97-12.97,12.97l-.18.16v-25.73h.56ZM360.47,417.31l-12.19,12.19-12.19-12.19h24.39ZM321.61,417.31h5.2l-5.2,5.2v-5.2ZM321.61,430.22l9.83-9.83,12.97,12.99-15.82,15.82h0s-6.98-6.97-6.98-6.97v-12ZM321.61,449.93l3.12,3.12-3.12,3.12v-6.25ZM321.61,489.41v-5.82l5.82,5.82h-5.82ZM321.61,475.88v-12l6.98-6.97h0s15.82,15.82,15.82,15.82l-12.97,12.97-9.83-9.82ZM335.46,489.41l12.82-12.82,12.82,12.82h-25.64ZM403.64,697.43c-.79.79-1.83,1.15-2.86,1.1t-.03-.01c-.9-.04-1.77-.41-2.45-1.09-1.09-1.09-1.37-2.68-.85-4.04h7.04c.52,1.36.25,2.95-.85,4.04ZM442.15,489.41l12.82-12.82,12.82,12.82h-25.64ZM480.36,489.41h-4.54l4.54-4.54v4.54ZM480.36,477.16l-8.55,8.54-12.97-12.97,15.84-15.82,5.69,5.69v14.57ZM480.36,454.89l-1.84-1.84h0s1.84-1.84,1.84-1.84v3.68ZM480.36,443.5l-5.7,5.69h0s-15.82-15.82-15.82-15.82l12.97-12.99,8.55,8.55v14.57ZM480.36,421.23l-3.91-3.91h3.91v3.91ZM498.94,453.56v-7.49c.15.01.3,0,.44.03h.01c.71.15,1.38.49,1.94,1.04,1.47,1.49,1.47,3.87,0,5.35-.67.67-1.52,1.01-2.39,1.08Z"/>
    <path class="cls-2" d="M382.09,698.6l-.97-.95-16.94,16.94,16.94,16.95h.01l.96-.97,15.99-15.97-15.99-16ZM380.93,718.37s-.01,0-.03-.01c-.9-.04-1.77-.41-2.45-1.09-1.47-1.47-1.47-3.86,0-5.35.93-.91,2.21-1.27,3.4-1.04h.01c.71.15,1.38.49,1.94,1.04,1.47,1.49,1.47,3.87,0,5.35-.79.79-1.83,1.15-2.86,1.1Z"/>
    <path class="cls-2" d="M400.97,717.49l-15.97,15.99-.97.95,16.94,16.94,16.94-16.94-.95-.97-15.99-15.97ZM403.64,737.02c-.78.79-1.83,1.15-2.86,1.1,0,0-.01,0-.01-.01-.91-.04-1.77-.41-2.47-1.09-1.47-1.47-1.46-3.86.01-5.35.93-.91,2.2-1.27,3.38-1.04h.03c.71.15,1.38.49,1.92,1.04,1.47,1.49,1.49,3.87,0,5.35Z"/>
    <path class="cls-2" d="M419.86,698.61l-15.99,15.99,16.94,16.94,16.94-16.95-16.94-16.94-.95.97ZM421.04,711.19c.71.14,1.38.49,1.94,1.04,1.47,1.47,1.47,3.86,0,5.33-.79.79-1.83,1.16-2.86,1.1-.01.01-.01,0-.03,0-.9-.04-1.77-.42-2.46-1.1-1.47-1.47-1.47-3.86,0-5.33.93-.93,2.21-1.27,3.4-1.04h.01Z"/>
    <path class="cls-2" d="M283.29,452.71l-15.97,15.99-.97.95,16.94,16.94,16.94-16.94-.95-.97-15.99-15.97ZM285.97,472.25c-.78.79-1.83,1.15-2.86,1.1,0,0-.01,0-.01-.01-.91-.04-1.77-.41-2.47-1.09-1.47-1.47-1.46-3.86.01-5.35.93-.91,2.2-1.27,3.38-1.04h.03c.71.15,1.38.49,1.92,1.04,1.47,1.49,1.49,3.87,0,5.35Z"/>
    <path class="cls-2" d="M299.28,430.93l.97-.95-16.95-16.95-16.94,16.95,16.94,16.94,15.99-15.99ZM283.07,433.74c-.9-.04-1.77-.41-2.45-1.09-1.47-1.47-1.47-3.86,0-5.35.93-.91,2.21-1.27,3.4-1.04h.01c.71.15,1.38.49,1.94,1.04,1.47,1.49,1.47,3.87,0,5.35-.79.79-1.83,1.15-2.86,1.1t-.03-.01Z"/>
    <path class="cls-2" d="M264.41,433.82l-.97-.95-16.94,16.94,16.94,16.95h.01l.95-.97,15.99-15.97-15.99-16ZM263.25,453.59s-.01,0-.03-.01c-.9-.04-1.77-.41-2.46-1.09-1.47-1.47-1.47-3.86,0-5.35.93-.91,2.21-1.27,3.4-1.04h.01c.71.15,1.38.49,1.94,1.04,1.47,1.49,1.47,3.87,0,5.35-.79.79-1.83,1.15-2.86,1.1Z"/>
    <polygon class="cls-2" points="342.93 330.61 342.93 348.55 350.67 348.55 350.67 348.11 351.29 348.11 351.29 331.05 350.67 331.05 350.67 330.61 342.93 330.61"/>
  </g>
</svg>