<svg width="310" height="484" viewBox="0 0 310 484" fill="none" xmlns="http://www.w3.org/2000/svg">
<g id="Group">
<path id="Vector" d="M272.51 184.71L256.54 200.7L255.57 201.65L272.51 218.59L289.45 201.65L288.5 200.68L272.51 184.71ZM275.18 204.25C274.4 205.04 273.35 205.4 272.32 205.35C272.32 205.35 272.31 205.35 272.31 205.34C271.4 205.3 270.54 204.93 269.84 204.25C268.37 202.78 268.38 200.39 269.85 198.9C270.78 197.99 272.05 197.63 273.23 197.86H273.26C273.97 198.01 274.64 198.35 275.18 198.9C276.65 200.39 276.67 202.77 275.18 204.25Z" fill="#E3B658"/>
<path id="Vector_2" d="M288.49 162.93L289.46 161.98L272.51 145.03L255.57 161.98L272.51 178.92L288.5 162.93H288.49ZM272.29 165.74C271.39 165.7 270.52 165.33 269.84 164.65C268.37 163.18 268.37 160.79 269.84 159.3C270.77 158.39 272.05 158.03 273.24 158.26H273.25C273.96 158.41 274.63 158.75 275.19 159.3C276.66 160.79 276.66 163.17 275.19 164.65C274.4 165.44 273.36 165.8 272.33 165.75C272.33 165.75 272.32 165.747 272.3 165.74H272.29Z" fill="#E3B658"/>
<path id="Vector_3" d="M292.35 164.87L291.4 165.84L275.41 181.83L292.35 198.77L309.29 181.82L292.35 164.88V164.87ZM291.64 185.89C291.64 185.89 291.63 185.89 291.61 185.89C290.71 185.85 289.84 185.47 289.15 184.79C287.68 183.32 287.68 180.93 289.15 179.46C290.08 178.53 291.36 178.19 292.55 178.42H292.56C293.27 178.56 293.94 178.91 294.5 179.46C295.97 180.93 295.97 183.32 294.5 184.79C293.71 185.58 292.67 185.95 291.64 185.89Z" fill="#E3B658"/>
<g id="Group 1">
<path id="Vector_4" d="M253.63 165.82L252.94 165.14V132.04H245.35V134.77H242.2V132.04H235.72V135.67H204.67V119.11H213.47V98.89H204.67V80.11H205.29V80.55H213.03V62.61H205.29V63.05H204.67V48.08H213.61V33.94V32.92H210.59V31.29H213.61V30.27V16.13H169.04L178.98 0.51001H130.95L140.9 16.13H96.33V30.27V31.29H99.35V32.92H96.33V33.94V48.08H105.28V98.89H96.18V119.11H105.28V135.67H74.07V132.04H67.59V134.77H63.33V132.04H56.85V165.15L56.18 165.83L40.19 181.82L56.85 198.48V238.05H63.33V235.32H67.59V238.05H74.07V235.05H105.28V323.79H104.66V323.17H96.92V348.58H104.66V347.95H105.28V403.32H96.18V416.96H96.33V425.38H139.38L138.02 426.74L154.96 443.68L170.95 427.69L171.92 426.74L170.56 425.38H213.61V403.32H213.46H204.66V347.95H205.31V348.58H213.05V323.17H205.31V323.8H204.66V235.06H235.71V238.06H242.19V235.33H245.34V238.06H252.93V198.5L253.62 197.8L269.61 181.83L253.62 165.83L253.63 165.82ZM56.86 185.86C56.72 185.86 56.57 185.89 56.43 185.88C56.42 185.89 56.42 185.88 56.4 185.88C55.5 185.84 54.63 185.46 53.94 184.78C52.47 183.31 52.47 180.92 53.94 179.45C54.74 178.65 55.81 178.31 56.85 178.38V185.87L56.86 185.86ZM221.17 149.31L208.98 161.5L196.79 149.31H221.18H221.17ZM138.68 278.66L138.79 278.77L138.91 278.65L151.76 291.51L135.92 307.35L122.95 294.38L138.68 278.67V278.66ZM138.67 270.94L122.96 255.23L135.95 242.26L151.77 258.08L138.92 270.94L138.8 270.82L138.68 270.94H138.67ZM151.76 330.89L138.91 343.75L138.79 343.63L138.68 343.75L122.95 328.02L135.92 315.05L151.76 330.89ZM139.79 311.21L155.63 295.37L171.47 311.21L155.63 327.03L139.79 311.21ZM142.78 274.8L155.63 261.94L168.49 274.8L155.63 287.65L142.78 274.8ZM139.79 238.4L155.63 222.56L171.47 238.4L155.63 254.22L139.79 238.4ZM152.9 183.19H127.69L138.8 172.08L142.66 168.22L152.9 157.98V183.19ZM152.9 188.64V212.12L142.66 201.88L129.43 188.65H152.91L152.9 188.64ZM151.78 218.71L135.94 234.53L122.97 221.56L138.81 205.74L151.78 218.71ZM132.08 238.4L118.93 251.55V225.25L132.08 238.4ZM134.82 274.8L118.93 290.69V258.91L134.82 274.8ZM132.08 311.21L118.93 324.35V298.07L132.08 311.22V311.21ZM134.82 347.61L118.93 363.5V331.7L134.82 347.6V347.61ZM138.68 351.46L138.79 351.58L138.91 351.46L151.76 364.32L135.92 380.16L122.95 367.19L138.68 351.46ZM142.78 347.61L155.63 334.75L168.49 347.61L155.63 360.46L142.78 347.61ZM159.49 364.32L172.34 351.46L172.46 351.58L172.57 351.46L188.3 367.19L175.33 380.16L159.49 364.32ZM172.46 343.63L172.34 343.75L159.49 330.89L175.33 315.05L188.3 328.02L172.57 343.75L172.46 343.63ZM159.49 291.51L172.34 278.65L172.46 278.77L172.58 278.66L188.29 294.37L175.32 307.34L159.48 291.5L159.49 291.51ZM172.46 270.82L172.34 270.94L159.49 258.08L175.33 242.26L188.3 255.23L172.59 270.94L172.47 270.82H172.46ZM175.31 234.54L159.49 218.72L172.46 205.75L188.28 221.57L175.31 234.54ZM168.6 201.88L158.36 212.12V188.64H181.84L168.61 201.88H168.6ZM158.35 183.19V157.98L168.59 168.22L172.45 172.08L183.56 183.19H158.35ZM176.32 168.22L192.14 152.38L205.13 165.37L189.29 181.19L176.32 168.22ZM191.03 143.56L179.16 131.71L191.03 119.84V143.56ZM188.29 148.52L172.45 164.36L159.48 151.39L175.32 135.55L188.29 148.52ZM155.62 147.52L139.78 131.7L152.37 119.11H158.86L171.45 131.7L155.61 147.52H155.62ZM172.46 91.33L172.35 91.44L159.49 78.58L175.33 62.76L188.3 75.73L172.57 91.44L172.46 91.33ZM179.17 58.89L189.97 48.09H191.03V70.76L179.16 58.89H179.17ZM175.31 55.03L168.37 48.09H182.27L175.31 55.03ZM171.46 58.89L155.62 74.71L139.78 58.89L150.58 48.09H160.65L171.45 58.89H171.46ZM135.94 55.03L128.98 48.09H142.88L135.94 55.03ZM132.08 58.89L118.93 72.04V48.09H121.28L132.08 58.89ZM135.94 62.75L151.76 78.57L138.9 91.43L138.79 91.32L138.68 91.43L122.95 75.72L135.94 62.75ZM142.76 95.3L155.62 82.44L168.48 95.3L164.89 98.89H146.35L142.76 95.3ZM144.66 119.11L135.93 127.84L127.2 119.11H144.66ZM151.76 151.39L138.79 164.36L122.95 148.52L135.92 135.55L151.76 151.39ZM134.93 168.22L121.96 181.19L106.14 165.37L119.11 152.38L134.93 168.22ZM118.1 185.05L102.28 200.87L86.44 185.05L102.28 169.21L118.1 185.05ZM121.96 188.91L134.93 201.88L119.11 217.7L106.14 204.73L121.96 188.91ZM118.93 370.87L132.08 384.02L118.93 397.16V370.88V370.87ZM135.93 387.86L151.4 403.33H125.46L122.96 400.83L135.93 387.86ZM139.79 384.02L155.63 368.18L171.47 384.02L155.63 399.84L139.79 384.02ZM175.32 387.86L188.29 400.83L185.79 403.33H159.85L175.32 387.86ZM179.18 384.02L191.03 372.15V395.87L179.18 384.02ZM176.43 347.61L191.04 332.99V362.22L176.43 347.61ZM179.18 311.21L191.03 299.34V323.06L179.18 311.21ZM176.43 274.8L191.04 260.19V289.41L176.43 274.8ZM179.17 238.4L191.04 226.53V250.26L179.17 238.39V238.4ZM176.32 201.88L189.29 188.91L205.11 204.73L192.14 217.7L176.32 201.88ZM193.15 185.05L208.97 169.21L224.81 185.05L208.97 200.87L193.15 185.05ZM175.32 127.84L166.59 119.11H184.05L175.32 127.84ZM180.02 98.89L176.43 95.3L191.04 80.69V98.89H180.02ZM118.93 79.41L134.82 95.3L131.23 98.89H118.93V79.41ZM119.49 119.11L132.08 131.7L119.11 144.67L118.93 144.83V119.1H119.49V119.11ZM114.47 149.31L102.28 161.5L90.09 149.31H114.48H114.47ZM75.61 149.31H80.81L75.61 154.51V149.31ZM75.61 162.22L85.44 152.39L98.41 165.38L82.59 181.2L75.61 174.23V162.23V162.22ZM75.61 181.93L78.73 185.05L75.61 188.17V181.92V181.93ZM75.61 221.41V215.59L81.43 221.41H75.61ZM75.61 207.88V195.88L82.59 188.91L98.41 204.73L85.44 217.7L75.61 207.88ZM89.46 221.41L102.28 208.59L115.1 221.41H89.46ZM157.64 429.43C156.85 430.22 155.81 430.58 154.78 430.53C154.78 430.53 154.77 430.527 154.75 430.52C153.85 430.48 152.98 430.11 152.3 429.43C151.21 428.34 150.93 426.75 151.45 425.39H158.49C159.01 426.75 158.74 428.34 157.64 429.43ZM196.15 221.41L208.97 208.59L221.79 221.41H196.15ZM234.36 221.41H229.82L234.36 216.87V221.41ZM234.36 209.16L225.81 217.7L212.84 204.73L228.68 188.91L234.37 194.6V209.17L234.36 209.16ZM234.36 186.89L232.52 185.05L234.36 183.21V186.89ZM234.36 175.5L228.66 181.19L212.84 165.37L225.81 152.38L234.36 160.93V175.5ZM234.36 153.23L230.45 149.32H234.36V153.23ZM252.94 185.56V178.07C253.09 178.08 253.24 178.07 253.38 178.1H253.39C254.1 178.25 254.77 178.59 255.33 179.14C256.8 180.63 256.8 183.01 255.33 184.49C254.66 185.16 253.81 185.5 252.94 185.57V185.56Z" fill="#E3B658"/>
</g>
<path id="Vector_5" d="M136.09 430.6L135.12 429.65L118.18 446.59L135.12 463.54H135.13L136.09 462.57L152.08 446.6L136.09 430.6ZM134.93 450.37C134.93 450.37 134.92 450.37 134.9 450.36C134 450.32 133.13 449.95 132.45 449.27C130.98 447.8 130.98 445.41 132.45 443.92C133.38 443.01 134.66 442.65 135.85 442.88H135.86C136.57 443.03 137.24 443.37 137.8 443.92C139.27 445.41 139.27 447.79 137.8 449.27C137.01 450.06 135.97 450.42 134.94 450.37H134.93Z" fill="#E3B658"/>
<path id="Vector_6" d="M154.97 449.49L139 465.48L138.03 466.43L154.97 483.37L171.91 466.43L170.96 465.46L154.97 449.49ZM157.64 469.02C156.86 469.81 155.81 470.17 154.78 470.12C154.78 470.12 154.77 470.12 154.77 470.11C153.86 470.07 153 469.7 152.3 469.02C150.83 467.55 150.84 465.16 152.31 463.67C153.24 462.76 154.51 462.4 155.69 462.63H155.72C156.43 462.78 157.1 463.12 157.64 463.67C159.11 465.16 159.13 467.54 157.64 469.02Z" fill="#E3B658"/>
<path id="Vector_7" d="M173.86 430.61L157.87 446.6L174.81 463.54L191.75 446.59L174.81 429.65L173.86 430.62V430.61ZM175.04 443.19C175.75 443.33 176.42 443.68 176.98 444.23C178.45 445.7 178.45 448.09 176.98 449.56C176.19 450.35 175.15 450.72 174.12 450.66C174.11 450.67 174.11 450.66 174.09 450.66C173.19 450.62 172.32 450.24 171.63 449.56C170.16 448.09 170.16 445.7 171.63 444.23C172.56 443.3 173.84 442.96 175.03 443.19H175.04Z" fill="#E3B658"/>
<path id="Vector_8" d="M37.29 184.71L21.32 200.7L20.35 201.65L37.29 218.59L54.23 201.65L53.28 200.68L37.29 184.71ZM39.97 204.25C39.19 205.04 38.14 205.4 37.11 205.35C37.11 205.35 37.1 205.35 37.1 205.34C36.19 205.3 35.33 204.93 34.63 204.25C33.16 202.78 33.17 200.39 34.64 198.9C35.57 197.99 36.84 197.63 38.02 197.86H38.05C38.76 198.01 39.43 198.35 39.97 198.9C41.44 200.39 41.46 202.77 39.97 204.25Z" fill="#E3B658"/>
<path id="Vector_9" d="M53.28 162.93L54.25 161.98L37.3 145.03L20.36 161.98L37.3 178.92L53.29 162.93H53.28ZM37.07 165.74C36.17 165.7 35.3 165.33 34.62 164.65C33.15 163.18 33.15 160.79 34.62 159.3C35.55 158.39 36.83 158.03 38.02 158.26H38.03C38.74 158.41 39.41 158.75 39.97 159.3C41.44 160.79 41.44 163.17 39.97 164.65C39.18 165.44 38.14 165.8 37.11 165.75C37.11 165.75 37.1 165.747 37.08 165.74H37.07Z" fill="#E3B658"/>
<path id="Vector_10" d="M18.41 165.82L17.44 164.87L0.5 181.81L17.44 198.76H17.45L18.4 197.79L34.39 181.82L18.4 165.82H18.41ZM17.25 185.59C17.25 185.59 17.24 185.59 17.22 185.58C16.32 185.54 15.45 185.17 14.76 184.49C13.29 183.02 13.29 180.63 14.76 179.14C15.69 178.23 16.97 177.87 18.16 178.1H18.17C18.88 178.25 19.55 178.59 20.11 179.14C21.58 180.63 21.58 183.01 20.11 184.49C19.32 185.28 18.28 185.64 17.25 185.59Z" fill="#E3B658"/>
<path id="Vector_11" d="M96.93 62.61V80.55H104.67V80.11H105.29V63.05H104.67V62.61H96.93Z" fill="#E3B658"/>
</g>
</svg>
