<svg width="211" height="71" viewBox="0 0 211 71" fill="none" xmlns="http://www.w3.org/2000/svg">
<g id="newint_logo_unspun 1" clip-path="url(#clip0_196_13)">
<path id="Vector" d="M16.4511 27.2083H11.794L5.16721 11.4198V20.514H0.547241V0.498047H5.20315L11.8299 16.2871V0.498047H16.4505L16.4511 27.2083Z" fill="#0E242C"/>
<g id="Clip path group">
<mask id="mask0_196_13" style="mask-type:luminance" maskUnits="userSpaceOnUse" x="-5" y="-3" width="220" height="78">
<g id="a">
<path id="Vector_2" d="M-4.36206 -2.68364H214.627V74.2065H-4.36206V-2.68364Z" fill="white"/>
</g>
</mask>
<g mask="url(#mask0_196_13)">
<g id="Group">
<path id="Vector_3" d="M29.3071 13.8359C29.3071 12.214 28.1252 11.2758 26.8358 11.2758C25.5822 11.2758 24.5078 12.2135 24.5078 13.8354V14.5933H29.3071V13.8359ZM33.7846 13.8359V18.4853H24.5073V20.3606C24.5073 21.9825 25.5459 22.8475 26.8353 22.8475C28.161 22.8475 29.3071 21.9825 29.3071 20.3606H33.7846C33.7846 24.2171 30.4537 27.3538 26.6204 27.3538C22.3941 27.3538 19.8512 24.2166 19.8512 20.3601V13.8354C19.8512 9.97882 22.9672 6.84315 26.8353 6.84315C30.6681 6.84315 33.7846 9.97882 33.7846 13.8354M56.2418 27.2086H50.941L47.9678 14.2318L44.995 27.2086H39.6932L35.0367 7.02335H39.6927L42.4864 19.2427L45.3169 7.02335H50.6187L53.4481 19.2427L56.2418 7.02335H60.8989L56.2418 27.2086ZM0.547352 30.5837H5.20395V55.9735H0.547352V30.5837ZM23.3627 42.6002V55.9735H18.7061V42.6002C18.7061 41.3027 17.6316 40.2935 16.2343 40.2935C14.9807 40.2935 13.7271 41.3027 13.7271 42.6002V55.9735H9.07054V35.7877H13.7271V37.0492C14.6947 36.1121 15.9482 35.6075 17.2376 35.6075C20.4969 35.6075 23.3627 38.3107 23.3627 42.6002ZM36.0769 55.9735H33.0678C29.235 55.9735 26.7637 53.811 26.7637 49.9539V39.9692H24.7933V35.7517H26.7632V30.5616H31.4192V35.7517H35.3964V39.9686H31.4197V48.9452C31.4197 50.2423 32.53 51.2875 33.7478 51.2875H36.0769V55.9735ZM47.144 42.6002C47.144 40.9783 45.9616 40.0402 44.6722 40.0402C43.4186 40.0402 42.3436 40.9783 42.3436 42.6002V43.3571H47.144V42.6002ZM51.621 42.6002V47.2497H42.3441V49.1244C42.3441 50.7463 43.3828 51.6119 44.6722 51.6119C45.9984 51.6119 47.1445 50.7458 47.1445 49.1249H51.6215C51.6215 52.9815 48.2906 56.1177 44.4578 56.1177C40.231 56.1177 37.6881 52.982 37.6881 49.1244V42.6008C37.6881 38.7432 40.8041 35.6075 44.6722 35.6075C48.5055 35.6075 51.622 38.7432 51.622 42.6002M64.4329 40.4377H62.4625C61.209 40.4377 58.9879 41.4819 58.9879 43.7896V55.9735H54.3318V35.7877H58.9879V37.1934C59.9549 36.2928 61.1726 35.7877 62.462 35.7877H64.4329V40.4377ZM80.632 42.6002V55.9735H75.9754V42.6002C75.9754 41.3027 74.9009 40.2935 73.5036 40.2935C72.25 40.2935 70.9965 41.3027 70.9965 42.6002V55.9735H66.3399V35.7877H70.996V37.0492C71.964 36.1121 73.2176 35.6075 74.507 35.6075C77.7662 35.6075 80.6315 38.3107 80.6315 42.6002M92.5239 49.1244V48.0797H91.6644C90.2675 48.0797 87.653 48.0426 87.653 50.026C87.653 51.1794 88.4051 51.8631 89.5512 51.8631C91.0555 51.8631 92.5239 50.7458 92.5239 49.1244ZM97.1805 55.9735H92.5245V54.4587C91.4131 55.5405 89.9447 56.1177 88.5479 56.1177C85.2528 56.1177 82.9237 53.9912 82.9237 50.3509C82.9237 46.2771 85.6821 44.1861 90.3745 44.1861H92.5239V42.6002C92.5239 41.2306 91.5927 40.2935 90.1959 40.2935C88.8349 40.2935 87.9037 41.2306 87.9037 42.6002H83.2466C83.2466 38.4193 86.0402 35.608 90.1954 35.608C94.3506 35.608 97.1089 38.3462 97.1805 42.4561V55.9735ZM109.894 55.9735H106.886C103.053 55.9735 100.581 53.811 100.581 49.9539V39.9692H98.6111V35.7517H100.581V30.5616H105.238V35.7517H109.214V39.9686H105.238V48.9452C105.238 50.2423 106.348 51.2875 107.566 51.2875H109.894V55.9735ZM111.827 35.7877H116.484V55.9735H111.827V35.7877ZM117.021 31.1377C117.021 32.6881 115.732 33.9496 114.155 33.9496C112.579 33.9496 111.326 32.6881 111.326 31.1377C111.326 29.5519 112.579 28.2544 114.155 28.2544C115.732 28.2544 117.021 29.5519 117.021 31.1377ZM128.73 42.6363H128.695C128.695 41.3383 127.655 40.3296 126.366 40.3296C125.148 40.3296 124.038 41.3383 124.038 42.6363V48.9808C124.038 50.2783 125.077 51.3235 126.366 51.3235C127.691 51.3235 128.694 50.2783 128.694 48.9808H128.73L128.73 42.6363ZM133.351 48.9808H133.315C133.315 52.8733 130.199 56.009 126.366 56.009C122.534 56.009 119.417 52.8733 119.417 48.9808V42.6363C119.417 38.7798 122.533 35.6441 126.365 35.6441C130.199 35.6441 133.315 38.7798 133.315 42.6363H133.351L133.351 48.9808ZM150.54 42.6002V55.9735H145.883V42.6002C145.883 41.3027 144.808 40.2935 143.411 40.2935C142.158 40.2935 140.904 41.3027 140.904 42.6002V55.9735H136.247V35.7877H140.904V37.0492C141.871 36.1121 143.125 35.6075 144.414 35.6075C147.673 35.6075 150.54 38.3107 150.54 42.6002ZM162.576 49.1244V48.0797H161.716C160.32 48.0797 157.705 48.0426 157.705 50.026C157.705 51.1794 158.457 51.8631 159.602 51.8631C161.108 51.8631 162.576 50.7458 162.576 49.1244ZM167.233 55.9735H162.576V54.4587C161.466 55.5405 159.997 56.1177 158.6 56.1177C155.305 56.1177 152.976 53.9912 152.976 50.3509C152.976 46.2771 155.735 44.1861 160.427 44.1861H162.576V42.6002C162.576 41.2306 161.645 40.2935 160.247 40.2935C158.886 40.2935 157.955 41.2306 157.955 42.6002H153.299C153.299 38.4193 156.093 35.608 160.247 35.608C164.403 35.608 167.161 38.3462 167.233 42.4561V55.9735ZM170.455 28.2544H175.112V55.973H170.455V28.2544ZM178.656 35.7877H183.314V55.9735H178.656V35.7877ZM183.85 31.1377C183.85 32.6881 182.561 33.9496 180.985 33.9496C179.409 33.9496 178.155 32.6881 178.155 31.1377C178.155 29.5519 179.409 28.2544 180.985 28.2544C182.561 28.2544 183.85 29.5519 183.85 31.1377ZM194.165 41.7713C194.165 40.7621 193.556 39.9331 192.41 39.9331C191.658 39.9331 190.834 40.5098 190.834 41.3388C190.834 42.42 192.589 42.9967 194.917 44.1856C196.351 44.9075 198.822 46.3121 198.822 49.7377C198.822 53.4861 196.279 55.973 192.447 55.973C188.577 55.973 185.998 53.4861 185.998 49.7732V49.3046H190.655V49.7732C190.655 50.7824 191.264 51.6114 192.446 51.6114C193.306 51.6114 194.022 51.0707 194.022 50.2417C194.022 49.0523 192.41 48.2594 189.33 46.8538C187.609 46.0958 185.998 44.547 185.998 41.8439C185.998 38.4188 188.9 35.608 192.41 35.608C195.921 35.608 198.822 38.3833 198.822 41.7713V42.2754H194.166L194.165 41.7713ZM210.999 55.9735H207.99C204.157 55.9735 201.686 53.811 201.686 49.9539V39.9692H199.716V35.7517H201.686V30.5616H206.342V35.7517H210.319V39.9686H206.342V48.9452C206.342 50.2423 207.452 51.2875 208.67 51.2875H210.999V55.9735ZM5.69514 25.5847C5.69514 27.135 4.40576 28.3965 2.82934 28.3965C1.25344 28.3965 -0.00012207 27.135 -0.00012207 25.5852C-0.00012207 23.9993 1.25344 22.7018 2.82934 22.7018C4.40525 22.7018 5.69463 23.9993 5.69463 25.5852" fill="#0E242C"/>
<path id="Vector_4" d="M3.17981 64.9556V70.3825H2.65639V64.9556H0.52124V64.522H5.31547V64.9556H3.17981ZM10.5917 70.3825H10.0683V67.7329H6.65857V70.3825H6.13566V64.522H6.65857V67.2824H10.0683V64.5226H10.5917V70.3825ZM15.8259 70.3825H12.053V64.522H15.742V64.9556H12.5764V67.2319H15.522V67.6727H12.5764V69.9495H15.8259V70.3825ZM24.0764 70.3825H23.3928L21.9843 65.1342L20.4984 70.3825H19.8061L18.2957 64.522H18.8862L20.1781 69.9073L21.6466 64.6075H22.3465L23.7566 69.9073L25.1238 64.5226H25.6723L24.0764 70.3825ZM31.0416 67.4528C31.0416 65.8051 30.1723 64.8279 28.9147 64.8279C27.6662 64.8279 26.7964 65.8051 26.7964 67.4528C26.7964 69.0922 27.6662 70.0772 28.9147 70.0772C30.1723 70.0772 31.0416 69.0922 31.0416 67.4528ZM31.6239 67.4528C31.6239 69.2189 30.6195 70.5009 28.9147 70.5009C27.2185 70.5009 26.2141 69.2189 26.2141 67.4528C26.2141 65.6692 27.2185 64.4036 28.9147 64.4036C30.6195 64.4036 31.6239 65.6692 31.6239 67.4528ZM34.4958 67.2916C34.7491 67.2916 34.8923 67.2916 35.0863 67.2741C35.7279 67.2232 36.15 66.8071 36.15 66.1192C36.15 65.4313 35.7867 65.0915 35.1543 64.9978C34.9329 64.9717 34.71 64.9601 34.4871 64.9633H33.2975V67.2916H34.4958ZM36.8085 70.3825H36.2252C36.082 70.0082 35.9812 69.6431 35.8967 68.879C35.82 68.2591 35.5677 67.7746 34.943 67.7411C34.791 67.7319 34.6222 67.7319 34.4871 67.7319H33.2975V70.3825H32.7741V64.522H34.4871C34.7829 64.522 35.0105 64.522 35.2802 64.556C36.1413 64.6662 36.7154 65.142 36.7154 66.0765C36.7154 66.8493 36.2257 67.3164 35.6184 67.4698C36.1162 67.6732 36.3603 68.2081 36.4202 68.8198C36.5046 69.6267 36.6059 70.0504 36.8085 70.3825ZM41.6119 70.3825H37.839V64.522H38.3624V69.9495H41.6119V70.3825ZM46.7362 67.4013C46.7362 65.8983 45.9175 65.1255 44.9556 64.9885C44.7699 64.9643 44.5842 64.9643 44.2802 64.9643H43.0983V69.9413H44.2547C44.5412 69.9413 44.7443 69.9413 44.9725 69.9068C45.9344 69.7626 46.7362 68.9218 46.7362 67.4013ZM47.3103 67.4013C47.3103 69.2534 46.1621 70.2033 45.0232 70.3485C44.7279 70.3825 44.5755 70.3825 44.2802 70.3825H42.5754V64.522H44.3058C44.6097 64.522 44.7443 64.522 45.0063 64.5478C46.1877 64.6837 47.3103 65.5328 47.3103 67.4013ZM54.4034 68.2849C54.4034 68.4548 54.3952 68.6247 54.3778 68.8286C54.3108 69.7791 53.661 70.5015 52.3358 70.5015C51.0019 70.5015 50.3608 69.7791 50.2845 68.8286C50.2682 68.6247 50.2682 68.4548 50.2682 68.2849V64.5215H50.7911V68.2591C50.7911 68.4455 50.7911 68.6164 50.808 68.7776C50.8755 69.5165 51.3565 70.0762 52.3358 70.0762C53.3064 70.0762 53.7874 69.5165 53.8549 68.7776C53.8713 68.6164 53.8805 68.4455 53.8805 68.2591V64.5215H54.4034V68.2849ZM59.3342 70.3825L56.3037 65.0313C56.3206 65.7542 56.3293 66.6285 56.3293 67.3591V70.3825H55.8058V64.522H56.5994L59.6376 69.8733C59.6207 69.0976 59.6122 68.3218 59.6121 67.546V64.522H60.1268L60.1355 70.3825H59.3342ZM65.2096 66.0935H64.6606C64.5593 65.2954 64.0527 64.8284 63.2842 64.8284C62.6181 64.8284 62.002 65.1765 62.002 65.8726C62.002 66.5862 62.4154 66.8493 63.4116 67.1042C64.6601 67.4271 65.2843 67.9028 65.2843 68.8708C65.2843 69.8388 64.4411 70.5015 63.3272 70.5015C62.1453 70.5015 61.2929 69.899 61.1665 68.7689H61.7237C61.8669 69.6097 62.5086 70.0767 63.3436 70.0767C64.1111 70.0767 64.7281 69.6354 64.7281 68.9558C64.7281 68.1999 64.2891 67.8771 63.2003 67.6057C62.0951 67.3164 61.4366 66.9261 61.4366 65.9838C61.4366 65.0313 62.2972 64.4036 63.3272 64.4036C64.4917 64.4036 65.0996 65.1415 65.2091 66.0935M69.7685 66.1954C69.7685 65.4488 69.3463 65.0997 68.8147 65.0148C68.6203 64.9813 68.3926 64.9726 68.1138 64.9726H66.983V67.4518H68.1138C68.3926 67.4518 68.6203 67.444 68.8147 67.409C69.3463 67.3241 69.7685 66.9683 69.7685 66.1954ZM70.3338 66.1954C70.3338 67.1969 69.6753 67.7581 68.8567 67.8688C68.5952 67.9018 68.3675 67.9018 68.0723 67.9018H66.9835V70.3825H66.4601V64.522H68.0718C68.3675 64.522 68.5952 64.522 68.8567 64.5555C69.7347 64.675 70.3338 65.2012 70.3338 66.1954ZM75.3399 68.2849C75.3399 68.4548 75.3317 68.6247 75.3148 68.8286C75.2473 69.7791 74.5975 70.5015 73.2723 70.5015C71.9389 70.5015 71.2973 69.7791 71.2216 68.8286C71.2047 68.6247 71.2047 68.4548 71.2047 68.2849V64.5215H71.7276V68.2591C71.7276 68.4455 71.7276 68.6164 71.745 68.7776C71.812 69.5165 72.293 70.0762 73.2723 70.0762C74.2429 70.0762 74.7239 69.5165 74.7914 68.7776C74.8083 68.6164 74.817 68.4455 74.817 68.2591V64.5215H75.3399V68.2849ZM80.2702 70.3825L77.2402 65.0313C77.2571 65.7542 77.2658 66.6285 77.2658 67.3591V70.3825H76.7424V64.522H77.5359L80.5742 69.8733C80.5572 69.0976 80.5487 68.3218 80.5486 67.546V64.522H81.0633L81.072 70.3825H80.2702Z" fill="#2B2B2A"/>
</g>
</g>
</g>
</g>
<defs>
<clipPath id="clip0_196_13">
<rect width="211" height="70" fill="white" transform="translate(0 0.5)"/>
</clipPath>
</defs>
</svg>
