<?xml version="1.0" encoding="UTF-8"?>
<svg id="Maternal_Mortality_Map" data-name="Maternal Mortality Map" xmlns="http://www.w3.org/2000/svg" xmlns:xlink="http://www.w3.org/1999/xlink" viewBox="0 0 1920 1080">
  <defs>
    <style>
      .cls-1 {
        fill: url(#linear-gradient);
      }

      .cls-1, .cls-2, .cls-3, .cls-4, .cls-5 {
        stroke-width: 0px;
      }

      .cls-2 {
        fill: none;
      }

      .cls-6 {
        clip-path: url(#clippath-1);
      }

      .cls-3 {
        fill: #ed3a3a;
      }

      .cls-4 {
        fill: #b71f27;
      }

      .cls-7 {
        clip-path: url(#clippath);
      }

      .cls-5 {
        fill: #fff;
      }
    </style>
    <clipPath id="clippath">
      <rect class="cls-2" x="0" y="1.03" width="1920" height="1079.48"/>
    </clipPath>
    <clipPath id="clippath-1">
      <rect class="cls-2" y="1.03" width="959.22" height="1079.48"/>
    </clipPath>
    <linearGradient id="linear-gradient" x1="959.97" y1="415.29" x2="959.97" y2="1080.52" gradientUnits="userSpaceOnUse">
      <stop offset="0" stop-color="#000" stop-opacity="0"/>
      <stop offset="1" stop-color="#000"/>
    </linearGradient>
  </defs>
  <g class="cls-7">
    <image width="4429" height="2953" transform="translate(0 -168.72) scale(.43)" xlink:href="../../../Resources/2024_New_Internationalist_magazine_Addis_Aemero-73.jpg"/>
  </g>
  <g class="cls-6">
    <image width="4429" height="2953" transform="translate(.2 -168.72) scale(.43)" xlink:href="../../../Resources/2024_New_Internationalist_magazine_Addis_Aemero-731.png"/>
  </g>
  <rect class="cls-4" x="0" y=".52" width="1919.94" height="157"/>
  <rect class="cls-1" x="0" y="415.29" width="1919.94" height="665.22"/>
  <g>
    <path class="cls-5" d="M906.04,68.7v-4.08c0-3.92.56-7.76,2.24-10.56,1.68-2.8,4.56-4.64,9.28-4.64,4.4,0,7.36,1.68,9.12,4.24,1.76,2.64,2.4,6.32,2.4,10.4,0,6-2.24,13.12-5.04,19.76-2.88,6.72-6.24,12.72-8.48,16.48h13.68v8.56h-23.44v-8.56c2.64-4.08,5.04-8.24,7.2-12.4,1.84-3.52,3.6-7.52,4.96-11.6,1.36-4.08,2.4-8.08,2.48-11.68,0-1.6-.08-3.44-.48-4.8-.4-1.36-1.12-2.4-2.4-2.4-1.2,0-1.92.88-2.32,2.16-.4,1.36-.56,3.12-.56,5.04v4.08h-8.64Z"/>
    <path class="cls-5" d="M957.88,96.78c-.08,2.4-.56,4.56-1.44,6.4-.72,1.6-1.84,3.12-3.44,4.32-1.6,1.28-3.76,2-6.64,2s-5.12-.72-6.72-2c-1.6-1.2-2.64-2.72-3.36-4.32-.88-1.84-1.36-4-1.44-6.4v-34.64c.08-2.32.56-4.48,1.44-6.32.72-1.6,1.76-3.2,3.36-4.4s3.84-2,6.72-2,5.04.8,6.64,2,2.72,2.8,3.44,4.4c.88,1.84,1.36,4,1.44,6.32v34.64ZM949.24,62.14c0-1.6-.32-2.72-1.12-3.68-.4-.4-1.04-.64-1.76-.64-1.52,0-2.24,1.12-2.56,2.16-.24.64-.32,1.36-.32,2.16v34.64c0,1.68.4,2.8,1.2,3.68.4.4.96.64,1.68.64,1.52,0,2.24-.96,2.56-2.16.24-.56.32-1.28.32-2.16v-34.64Z"/>
    <path class="cls-5" d="M986.2,96.78c-.08,2.4-.56,4.56-1.44,6.4-.72,1.6-1.84,3.12-3.44,4.32-1.6,1.28-3.76,2-6.64,2s-5.12-.72-6.72-2c-1.6-1.2-2.64-2.72-3.36-4.32-.88-1.84-1.36-4-1.44-6.4v-34.64c.08-2.32.56-4.48,1.44-6.32.72-1.6,1.76-3.2,3.36-4.4,1.6-1.2,3.84-2,6.72-2s5.04.8,6.64,2,2.72,2.8,3.44,4.4c.88,1.84,1.36,4,1.44,6.32v34.64ZM977.56,62.14c0-1.6-.32-2.72-1.12-3.68-.4-.4-1.04-.64-1.76-.64-1.52,0-2.24,1.12-2.56,2.16-.24.64-.32,1.36-.32,2.16v34.64c0,1.68.4,2.8,1.2,3.68.4.4.96.64,1.68.64,1.52,0,2.24-.96,2.56-2.16.24-.56.32-1.28.32-2.16v-34.64Z"/>
    <path class="cls-5" d="M1005.64,81.02c0-2.48-.88-4.32-2.72-4.32-.96,0-1.76.72-2.4,1.6-.64.96-.96,2.08-.96,2.72h-7.28v-30.96h20.88v8.56h-13.44v12.24c.96-.72,2-1.36,3.2-1.76.56-.24,1.2-.32,1.76-.24,4.48,0,6.88,2.56,8.16,5.36,1.28,2.8,1.44,5.84,1.44,6.8v13.12c0,2.8-.16,6.56-1.68,9.68-1.52,3.2-4.4,5.68-9.6,5.68s-8.08-2.48-9.6-6c-1.52-3.44-1.68-7.84-1.68-11.76h8.64v2.32c0,2.96.16,5.04.56,6.16.4,1.2,1.04,1.76,2.08,1.76.88,0,1.6-.56,2-1.68.4-1.12.64-3.2.64-6.16v-13.12Z"/>
  </g>
  <g>
    <path class="cls-5" d="M70.32,68.7v-4.08c0-3.92.56-7.76,2.24-10.56,1.68-2.8,4.56-4.64,9.28-4.64,4.4,0,7.36,1.68,9.12,4.24,1.76,2.64,2.4,6.32,2.4,10.4,0,6-2.24,13.12-5.04,19.76-2.88,6.72-6.24,12.72-8.48,16.48h13.68v8.56h-23.44v-8.56c2.64-4.08,5.04-8.24,7.2-12.4,1.84-3.52,3.6-7.52,4.96-11.6,1.36-4.08,2.4-8.08,2.48-11.68,0-1.6-.08-3.44-.48-4.8-.4-1.36-1.12-2.4-2.4-2.4-1.2,0-1.92.88-2.32,2.16-.4,1.36-.56,3.12-.56,5.04v4.08h-8.64Z"/>
    <path class="cls-5" d="M122.16,96.78c-.08,2.4-.56,4.56-1.44,6.4-.72,1.6-1.84,3.12-3.44,4.32-1.6,1.28-3.76,2-6.64,2s-5.12-.72-6.72-2c-1.6-1.2-2.64-2.72-3.36-4.32-.88-1.84-1.36-4-1.44-6.4v-34.64c.08-2.32.56-4.48,1.44-6.32.72-1.6,1.76-3.2,3.36-4.4,1.6-1.2,3.84-2,6.72-2s5.04.8,6.64,2,2.72,2.8,3.44,4.4c.88,1.84,1.36,4,1.44,6.32v34.64ZM113.52,62.14c0-1.6-.32-2.72-1.12-3.68-.4-.4-1.04-.64-1.76-.64-1.52,0-2.24,1.12-2.56,2.16-.24.64-.32,1.36-.32,2.16v34.64c0,1.68.4,2.8,1.2,3.68.4.4.96.64,1.68.64,1.52,0,2.24-.96,2.56-2.16.24-.56.32-1.28.32-2.16v-34.64Z"/>
    <path class="cls-5" d="M150.48,96.78c-.08,2.4-.56,4.56-1.44,6.4-.72,1.6-1.84,3.12-3.44,4.32-1.6,1.28-3.76,2-6.64,2s-5.12-.72-6.72-2c-1.6-1.2-2.64-2.72-3.36-4.32-.88-1.84-1.36-4-1.44-6.4v-34.64c.08-2.32.56-4.48,1.44-6.32.72-1.6,1.76-3.2,3.36-4.4s3.84-2,6.72-2,5.04.8,6.64,2c1.6,1.2,2.72,2.8,3.44,4.4.88,1.84,1.36,4,1.44,6.32v34.64ZM141.84,62.14c0-1.6-.32-2.72-1.12-3.68-.4-.4-1.04-.64-1.76-.64-1.52,0-2.24,1.12-2.56,2.16-.24.64-.32,1.36-.32,2.16v34.64c0,1.68.4,2.8,1.2,3.68.4.4.96.64,1.68.64,1.52,0,2.24-.96,2.56-2.16.24-.56.32-1.28.32-2.16v-34.64Z"/>
    <path class="cls-5" d="M178.8,96.78c-.08,2.4-.56,4.56-1.44,6.4-.72,1.6-1.84,3.12-3.44,4.32-1.6,1.28-3.76,2-6.64,2s-5.12-.72-6.72-2c-1.6-1.2-2.64-2.72-3.36-4.32-.88-1.84-1.36-4-1.44-6.4v-34.64c.08-2.32.56-4.48,1.44-6.32.72-1.6,1.76-3.2,3.36-4.4,1.6-1.2,3.84-2,6.72-2s5.04.8,6.64,2c1.6,1.2,2.72,2.8,3.44,4.4.88,1.84,1.36,4,1.44,6.32v34.64ZM170.16,62.14c0-1.6-.32-2.72-1.12-3.68-.4-.4-1.04-.64-1.76-.64-1.52,0-2.24,1.12-2.56,2.16-.24.64-.32,1.36-.32,2.16v34.64c0,1.68.4,2.8,1.2,3.68.4.4.96.64,1.68.64,1.52,0,2.24-.96,2.56-2.16.24-.56.32-1.28.32-2.16v-34.64Z"/>
  </g>
  <g>
    <path class="cls-5" d="M1732.42,68.7v-4.08c0-3.92.56-7.76,2.24-10.56,1.68-2.8,4.56-4.64,9.28-4.64,4.4,0,7.36,1.68,9.12,4.24,1.76,2.64,2.4,6.32,2.4,10.4,0,6-2.24,13.12-5.04,19.76-2.88,6.72-6.24,12.72-8.48,16.48h13.68v8.56h-23.44v-8.56c2.64-4.08,5.04-8.24,7.2-12.4,1.84-3.52,3.6-7.52,4.96-11.6s2.4-8.08,2.48-11.68c0-1.6-.08-3.44-.48-4.8s-1.12-2.4-2.4-2.4c-1.2,0-1.92.88-2.32,2.16-.4,1.36-.56,3.12-.56,5.04v4.08h-8.64Z"/>
    <path class="cls-5" d="M1784.26,96.78c-.08,2.4-.56,4.56-1.44,6.4-.72,1.6-1.84,3.12-3.44,4.32-1.6,1.28-3.76,2-6.64,2s-5.12-.72-6.72-2c-1.6-1.2-2.64-2.72-3.36-4.32-.88-1.84-1.36-4-1.44-6.4v-34.64c.08-2.32.56-4.48,1.44-6.32.72-1.6,1.76-3.2,3.36-4.4s3.84-2,6.72-2,5.04.8,6.64,2c1.6,1.2,2.72,2.8,3.44,4.4.88,1.84,1.36,4,1.44,6.32v34.64ZM1775.62,62.14c0-1.6-.32-2.72-1.12-3.68-.4-.4-1.04-.64-1.76-.64-1.52,0-2.24,1.12-2.56,2.16-.24.64-.32,1.36-.32,2.16v34.64c0,1.68.4,2.8,1.2,3.68.4.4.96.64,1.68.64,1.52,0,2.24-.96,2.56-2.16.24-.56.32-1.28.32-2.16v-34.64Z"/>
    <path class="cls-5" d="M1789.3,68.7v-4.08c0-3.92.56-7.76,2.24-10.56,1.68-2.8,4.56-4.64,9.28-4.64,4.4,0,7.36,1.68,9.12,4.24,1.76,2.64,2.4,6.32,2.4,10.4,0,6-2.24,13.12-5.04,19.76-2.88,6.72-6.24,12.72-8.48,16.48h13.68v8.56h-23.44v-8.56c2.64-4.08,5.04-8.24,7.2-12.4,1.84-3.52,3.6-7.52,4.96-11.6s2.4-8.08,2.48-11.68c0-1.6-.08-3.44-.48-4.8s-1.12-2.4-2.4-2.4c-1.2,0-1.92.88-2.32,2.16-.4,1.36-.56,3.12-.56,5.04v4.08h-8.64Z"/>
    <path class="cls-5" d="M1841.14,96.78c-.08,2.4-.56,4.56-1.44,6.4-.72,1.6-1.84,3.12-3.44,4.32-1.6,1.28-3.76,2-6.64,2s-5.12-.72-6.72-2c-1.6-1.2-2.64-2.72-3.36-4.32-.88-1.84-1.36-4-1.44-6.4v-34.64c.08-2.32.56-4.48,1.44-6.32.72-1.6,1.76-3.2,3.36-4.4s3.84-2,6.72-2,5.04.8,6.64,2c1.6,1.2,2.72,2.8,3.44,4.4.88,1.84,1.36,4,1.44,6.32v34.64ZM1832.5,62.14c0-1.6-.32-2.72-1.12-3.68-.4-.4-1.04-.64-1.76-.64-1.52,0-2.24,1.12-2.56,2.16-.24.64-.32,1.36-.32,2.16v34.64c0,1.68.4,2.8,1.2,3.68.4.4.96.64,1.68.64,1.52,0,2.24-.96,2.56-2.16.24-.56.32-1.28.32-2.16v-34.64Z"/>
  </g>
  <g>
    <path class="cls-5" d="M209.89,96.99c-.28,0-.5-.22-.5-.5v-34.06c0-.28.22-.5.5-.5s.5.22.5.5v34.06c0,.28-.22.5-.5.5Z"/>
    <path class="cls-5" d="M223.43,91.53c-.28,0-.5-.22-.5-.5v-23.14c0-.28.22-.5.5-.5s.5.22.5.5v23.14c0,.28-.22.5-.5.5Z"/>
    <path class="cls-5" d="M236.96,91.53c-.28,0-.5-.22-.5-.5v-23.14c0-.28.22-.5.5-.5s.5.22.5.5v23.14c0,.28-.22.5-.5.5Z"/>
    <path class="cls-5" d="M250.5,91.53c-.28,0-.5-.22-.5-.5v-23.14c0-.28.22-.5.5-.5s.5.22.5.5v23.14c0,.28-.22.5-.5.5Z"/>
    <path class="cls-5" d="M264.04,91.53c-.28,0-.5-.22-.5-.5v-23.14c0-.28.22-.5.5-.5s.5.22.5.5v23.14c0,.28-.22.5-.5.5Z"/>
    <path class="cls-5" d="M277.58,91.53c-.28,0-.5-.22-.5-.5v-23.14c0-.28.22-.5.5-.5s.5.22.5.5v23.14c0,.28-.22.5-.5.5Z"/>
    <path class="cls-5" d="M291.11,96.99c-.28,0-.5-.22-.5-.5v-34.06c0-.28.22-.5.5-.5s.5.22.5.5v34.06c0,.28-.22.5-.5.5Z"/>
    <path class="cls-5" d="M304.65,91.53c-.28,0-.5-.22-.5-.5v-23.14c0-.28.22-.5.5-.5s.5.22.5.5v23.14c0,.28-.22.5-.5.5Z"/>
    <path class="cls-5" d="M318.19,91.53c-.28,0-.5-.22-.5-.5v-23.14c0-.28.22-.5.5-.5s.5.22.5.5v23.14c0,.28-.22.5-.5.5Z"/>
    <path class="cls-5" d="M331.73,91.53c-.28,0-.5-.22-.5-.5v-23.14c0-.28.22-.5.5-.5s.5.22.5.5v23.14c0,.28-.22.5-.5.5Z"/>
    <path class="cls-5" d="M345.27,91.53c-.28,0-.5-.22-.5-.5v-23.14c0-.28.22-.5.5-.5s.5.22.5.5v23.14c0,.28-.22.5-.5.5Z"/>
    <path class="cls-5" d="M358.8,91.53c-.28,0-.5-.22-.5-.5v-23.14c0-.28.22-.5.5-.5s.5.22.5.5v23.14c0,.28-.22.5-.5.5Z"/>
    <path class="cls-5" d="M372.34,96.99c-.28,0-.5-.22-.5-.5v-34.06c0-.28.22-.5.5-.5s.5.22.5.5v34.06c0,.28-.22.5-.5.5Z"/>
    <path class="cls-5" d="M385.88,91.53c-.28,0-.5-.22-.5-.5v-23.14c0-.28.22-.5.5-.5s.5.22.5.5v23.14c0,.28-.22.5-.5.5Z"/>
    <path class="cls-5" d="M399.42,91.53c-.28,0-.5-.22-.5-.5v-23.14c0-.28.22-.5.5-.5s.5.22.5.5v23.14c0,.28-.22.5-.5.5Z"/>
    <path class="cls-5" d="M412.95,91.53c-.28,0-.5-.22-.5-.5v-23.14c0-.28.22-.5.5-.5s.5.22.5.5v23.14c0,.28-.22.5-.5.5Z"/>
    <path class="cls-5" d="M426.49,91.53c-.28,0-.5-.22-.5-.5v-23.14c0-.28.22-.5.5-.5s.5.22.5.5v23.14c0,.28-.22.5-.5.5Z"/>
    <path class="cls-5" d="M440.03,91.53c-.28,0-.5-.22-.5-.5v-23.14c0-.28.22-.5.5-.5s.5.22.5.5v23.14c0,.28-.22.5-.5.5Z"/>
    <path class="cls-5" d="M453.57,96.99c-.28,0-.5-.22-.5-.5v-34.06c0-.28.22-.5.5-.5s.5.22.5.5v34.06c0,.28-.22.5-.5.5Z"/>
    <path class="cls-5" d="M467.1,91.05c-.28,0-.5-.22-.5-.5v-22.47c0-.28.22-.5.5-.5s.5.22.5.5v22.47c0,.28-.22.5-.5.5Z"/>
    <path class="cls-5" d="M480.64,91.53c-.28,0-.5-.22-.5-.5v-23.14c0-.28.22-.5.5-.5s.5.22.5.5v23.14c0,.28-.22.5-.5.5Z"/>
    <path class="cls-5" d="M494.18,91.53c-.28,0-.5-.22-.5-.5v-23.14c0-.28.22-.5.5-.5s.5.22.5.5v23.14c0,.28-.22.5-.5.5Z"/>
    <path class="cls-5" d="M507.72,91.53c-.28,0-.5-.22-.5-.5v-23.14c0-.28.22-.5.5-.5s.5.22.5.5v23.14c0,.28-.22.5-.5.5Z"/>
    <path class="cls-5" d="M521.25,91.53c-.28,0-.5-.22-.5-.5v-23.14c0-.28.22-.5.5-.5s.5.22.5.5v23.14c0,.28-.22.5-.5.5Z"/>
    <path class="cls-5" d="M534.79,91.53c-.28,0-.5-.22-.5-.5v-23.14c0-.28.22-.5.5-.5s.5.22.5.5v23.14c0,.28-.22.5-.5.5Z"/>
    <path class="cls-5" d="M548.33,96.99c-.28,0-.5-.22-.5-.5v-34.06c0-.28.22-.5.5-.5s.5.22.5.5v34.06c0,.28-.22.5-.5.5Z"/>
    <path class="cls-5" d="M561.87,91.53c-.28,0-.5-.22-.5-.5v-23.14c0-.28.22-.5.5-.5s.5.22.5.5v23.14c0,.28-.22.5-.5.5Z"/>
    <path class="cls-5" d="M575.41,91.53c-.28,0-.5-.22-.5-.5v-23.14c0-.28.22-.5.5-.5s.5.22.5.5v23.14c0,.28-.22.5-.5.5Z"/>
    <path class="cls-5" d="M588.94,91.53c-.28,0-.5-.22-.5-.5v-23.14c0-.28.22-.5.5-.5s.5.22.5.5v23.14c0,.28-.22.5-.5.5Z"/>
    <path class="cls-5" d="M602.48,91.53c-.28,0-.5-.22-.5-.5v-23.14c0-.28.22-.5.5-.5s.5.22.5.5v23.14c0,.28-.22.5-.5.5Z"/>
    <path class="cls-5" d="M616.02,91.53c-.28,0-.5-.22-.5-.5v-23.14c0-.28.22-.5.5-.5s.5.22.5.5v23.14c0,.28-.22.5-.5.5Z"/>
    <path class="cls-5" d="M629.56,96.99c-.28,0-.5-.22-.5-.5v-34.06c0-.28.22-.5.5-.5s.5.22.5.5v34.06c0,.28-.22.5-.5.5Z"/>
    <path class="cls-5" d="M643.09,91.53c-.28,0-.5-.22-.5-.5v-23.14c0-.28.22-.5.5-.5s.5.22.5.5v23.14c0,.28-.22.5-.5.5Z"/>
    <path class="cls-5" d="M656.63,91.53c-.28,0-.5-.22-.5-.5v-23.14c0-.28.22-.5.5-.5s.5.22.5.5v23.14c0,.28-.22.5-.5.5Z"/>
    <path class="cls-5" d="M670.17,91.53c-.28,0-.5-.22-.5-.5v-23.14c0-.28.22-.5.5-.5s.5.22.5.5v23.14c0,.28-.22.5-.5.5Z"/>
    <path class="cls-5" d="M683.71,91.53c-.28,0-.5-.22-.5-.5v-23.14c0-.28.22-.5.5-.5s.5.22.5.5v23.14c0,.28-.22.5-.5.5Z"/>
    <path class="cls-5" d="M697.24,91.53c-.28,0-.5-.22-.5-.5v-23.14c0-.28.22-.5.5-.5s.5.22.5.5v23.14c0,.28-.22.5-.5.5Z"/>
    <path class="cls-5" d="M710.78,96.99c-.28,0-.5-.22-.5-.5v-34.06c0-.28.22-.5.5-.5s.5.22.5.5v34.06c0,.28-.22.5-.5.5Z"/>
    <path class="cls-5" d="M724.32,91.53c-.28,0-.5-.22-.5-.5v-23.14c0-.28.22-.5.5-.5s.5.22.5.5v23.14c0,.28-.22.5-.5.5Z"/>
    <path class="cls-5" d="M737.86,91.53c-.28,0-.5-.22-.5-.5v-23.14c0-.28.22-.5.5-.5s.5.22.5.5v23.14c0,.28-.22.5-.5.5Z"/>
    <path class="cls-5" d="M751.4,91.53c-.28,0-.5-.22-.5-.5v-23.14c0-.28.22-.5.5-.5s.5.22.5.5v23.14c0,.28-.22.5-.5.5Z"/>
    <path class="cls-5" d="M764.93,91.53c-.28,0-.5-.22-.5-.5v-23.14c0-.28.22-.5.5-.5s.5.22.5.5v23.14c0,.28-.22.5-.5.5Z"/>
    <path class="cls-5" d="M778.47,91.53c-.28,0-.5-.22-.5-.5v-23.14c0-.28.22-.5.5-.5s.5.22.5.5v23.14c0,.28-.22.5-.5.5Z"/>
    <path class="cls-5" d="M792.01,96.99c-.28,0-.5-.22-.5-.5v-34.06c0-.28.22-.5.5-.5s.5.22.5.5v34.06c0,.28-.22.5-.5.5Z"/>
    <path class="cls-5" d="M805.55,91.53c-.28,0-.5-.22-.5-.5v-23.14c0-.28.22-.5.5-.5s.5.22.5.5v23.14c0,.28-.22.5-.5.5Z"/>
    <path class="cls-5" d="M819.08,91.53c-.28,0-.5-.22-.5-.5v-23.14c0-.28.22-.5.5-.5s.5.22.5.5v23.14c0,.28-.22.5-.5.5Z"/>
    <path class="cls-5" d="M832.62,91.53c-.28,0-.5-.22-.5-.5v-23.14c0-.28.22-.5.5-.5s.5.22.5.5v23.14c0,.28-.22.5-.5.5Z"/>
    <path class="cls-5" d="M846.16,91.53c-.28,0-.5-.22-.5-.5v-23.14c0-.28.22-.5.5-.5s.5.22.5.5v23.14c0,.28-.22.5-.5.5Z"/>
    <path class="cls-5" d="M859.7,91.53c-.28,0-.5-.22-.5-.5v-23.14c0-.28.22-.5.5-.5s.5.22.5.5v23.14c0,.28-.22.5-.5.5Z"/>
    <path class="cls-5" d="M873.23,96.99c-.28,0-.5-.22-.5-.5v-34.06c0-.28.22-.5.5-.5s.5.22.5.5v34.06c0,.28-.22.5-.5.5Z"/>
  </g>
  <g>
    <path class="cls-5" d="M1038.51,96.99c-.28,0-.5-.22-.5-.5v-34.06c0-.28.22-.5.5-.5s.5.22.5.5v34.06c0,.28-.22.5-.5.5Z"/>
    <path class="cls-5" d="M1052.05,91.53c-.28,0-.5-.22-.5-.5v-23.14c0-.28.22-.5.5-.5s.5.22.5.5v23.14c0,.28-.22.5-.5.5Z"/>
    <path class="cls-5" d="M1065.59,91.53c-.28,0-.5-.22-.5-.5v-23.14c0-.28.22-.5.5-.5s.5.22.5.5v23.14c0,.28-.22.5-.5.5Z"/>
    <path class="cls-5" d="M1079.13,91.53c-.28,0-.5-.22-.5-.5v-23.14c0-.28.22-.5.5-.5s.5.22.5.5v23.14c0,.28-.22.5-.5.5Z"/>
    <path class="cls-5" d="M1092.66,91.53c-.28,0-.5-.22-.5-.5v-23.14c0-.28.22-.5.5-.5s.5.22.5.5v23.14c0,.28-.22.5-.5.5Z"/>
    <path class="cls-5" d="M1106.2,91.53c-.28,0-.5-.22-.5-.5v-23.14c0-.28.22-.5.5-.5s.5.22.5.5v23.14c0,.28-.22.5-.5.5Z"/>
    <path class="cls-5" d="M1119.74,96.99c-.28,0-.5-.22-.5-.5v-34.06c0-.28.22-.5.5-.5s.5.22.5.5v34.06c0,.28-.22.5-.5.5Z"/>
    <path class="cls-5" d="M1133.28,91.53c-.28,0-.5-.22-.5-.5v-23.14c0-.28.22-.5.5-.5s.5.22.5.5v23.14c0,.28-.22.5-.5.5Z"/>
    <path class="cls-5" d="M1146.81,91.53c-.28,0-.5-.22-.5-.5v-23.14c0-.28.22-.5.5-.5s.5.22.5.5v23.14c0,.28-.22.5-.5.5Z"/>
    <path class="cls-5" d="M1160.35,91.53c-.28,0-.5-.22-.5-.5v-23.14c0-.28.22-.5.5-.5s.5.22.5.5v23.14c0,.28-.22.5-.5.5Z"/>
    <path class="cls-5" d="M1173.89,91.53c-.28,0-.5-.22-.5-.5v-23.14c0-.28.22-.5.5-.5s.5.22.5.5v23.14c0,.28-.22.5-.5.5Z"/>
    <path class="cls-5" d="M1187.43,91.53c-.28,0-.5-.22-.5-.5v-23.14c0-.28.22-.5.5-.5s.5.22.5.5v23.14c0,.28-.22.5-.5.5Z"/>
    <path class="cls-5" d="M1200.96,96.99c-.28,0-.5-.22-.5-.5v-34.06c0-.28.22-.5.5-.5s.5.22.5.5v34.06c0,.28-.22.5-.5.5Z"/>
    <path class="cls-5" d="M1214.5,91.53c-.28,0-.5-.22-.5-.5v-23.14c0-.28.22-.5.5-.5s.5.22.5.5v23.14c0,.28-.22.5-.5.5Z"/>
    <path class="cls-5" d="M1228.04,91.53c-.28,0-.5-.22-.5-.5v-23.14c0-.28.22-.5.5-.5s.5.22.5.5v23.14c0,.28-.22.5-.5.5Z"/>
    <path class="cls-5" d="M1241.58,91.53c-.28,0-.5-.22-.5-.5v-23.14c0-.28.22-.5.5-.5s.5.22.5.5v23.14c0,.28-.22.5-.5.5Z"/>
    <path class="cls-5" d="M1255.12,91.53c-.28,0-.5-.22-.5-.5v-23.14c0-.28.22-.5.5-.5s.5.22.5.5v23.14c0,.28-.22.5-.5.5Z"/>
    <path class="cls-5" d="M1268.65,91.53c-.28,0-.5-.22-.5-.5v-23.14c0-.28.22-.5.5-.5s.5.22.5.5v23.14c0,.28-.22.5-.5.5Z"/>
    <path class="cls-5" d="M1282.19,96.99c-.28,0-.5-.22-.5-.5v-34.06c0-.28.22-.5.5-.5s.5.22.5.5v34.06c0,.28-.22.5-.5.5Z"/>
    <path class="cls-5" d="M1295.73,91.05c-.28,0-.5-.22-.5-.5v-22.47c0-.28.22-.5.5-.5s.5.22.5.5v22.47c0,.28-.22.5-.5.5Z"/>
    <path class="cls-5" d="M1309.27,91.53c-.28,0-.5-.22-.5-.5v-23.14c0-.28.22-.5.5-.5s.5.22.5.5v23.14c0,.28-.22.5-.5.5Z"/>
    <path class="cls-5" d="M1322.8,91.53c-.28,0-.5-.22-.5-.5v-23.14c0-.28.22-.5.5-.5s.5.22.5.5v23.14c0,.28-.22.5-.5.5Z"/>
    <path class="cls-5" d="M1336.34,91.53c-.28,0-.5-.22-.5-.5v-23.14c0-.28.22-.5.5-.5s.5.22.5.5v23.14c0,.28-.22.5-.5.5Z"/>
    <path class="cls-5" d="M1349.88,91.53c-.28,0-.5-.22-.5-.5v-23.14c0-.28.22-.5.5-.5s.5.22.5.5v23.14c0,.28-.22.5-.5.5Z"/>
    <path class="cls-5" d="M1363.42,91.53c-.28,0-.5-.22-.5-.5v-23.14c0-.28.22-.5.5-.5s.5.22.5.5v23.14c0,.28-.22.5-.5.5Z"/>
    <path class="cls-5" d="M1376.95,96.99c-.28,0-.5-.22-.5-.5v-34.06c0-.28.22-.5.5-.5s.5.22.5.5v34.06c0,.28-.22.5-.5.5Z"/>
    <path class="cls-5" d="M1390.49,91.53c-.28,0-.5-.22-.5-.5v-23.14c0-.28.22-.5.5-.5s.5.22.5.5v23.14c0,.28-.22.5-.5.5Z"/>
    <path class="cls-5" d="M1404.03,91.53c-.28,0-.5-.22-.5-.5v-23.14c0-.28.22-.5.5-.5s.5.22.5.5v23.14c0,.28-.22.5-.5.5Z"/>
    <path class="cls-5" d="M1417.57,91.53c-.28,0-.5-.22-.5-.5v-23.14c0-.28.22-.5.5-.5s.5.22.5.5v23.14c0,.28-.22.5-.5.5Z"/>
    <path class="cls-5" d="M1431.1,91.53c-.28,0-.5-.22-.5-.5v-23.14c0-.28.22-.5.5-.5s.5.22.5.5v23.14c0,.28-.22.5-.5.5Z"/>
    <path class="cls-5" d="M1444.64,91.53c-.28,0-.5-.22-.5-.5v-23.14c0-.28.22-.5.5-.5s.5.22.5.5v23.14c0,.28-.22.5-.5.5Z"/>
    <path class="cls-5" d="M1458.18,96.99c-.28,0-.5-.22-.5-.5v-34.06c0-.28.22-.5.5-.5s.5.22.5.5v34.06c0,.28-.22.5-.5.5Z"/>
    <path class="cls-5" d="M1471.72,91.53c-.28,0-.5-.22-.5-.5v-23.14c0-.28.22-.5.5-.5s.5.22.5.5v23.14c0,.28-.22.5-.5.5Z"/>
    <path class="cls-5" d="M1485.25,91.53c-.28,0-.5-.22-.5-.5v-23.14c0-.28.22-.5.5-.5s.5.22.5.5v23.14c0,.28-.22.5-.5.5Z"/>
    <path class="cls-5" d="M1498.79,91.53c-.28,0-.5-.22-.5-.5v-23.14c0-.28.22-.5.5-.5s.5.22.5.5v23.14c0,.28-.22.5-.5.5Z"/>
    <path class="cls-5" d="M1512.33,91.53c-.28,0-.5-.22-.5-.5v-23.14c0-.28.22-.5.5-.5s.5.22.5.5v23.14c0,.28-.22.5-.5.5Z"/>
    <path class="cls-5" d="M1525.87,91.53c-.28,0-.5-.22-.5-.5v-23.14c0-.28.22-.5.5-.5s.5.22.5.5v23.14c0,.28-.22.5-.5.5Z"/>
    <path class="cls-5" d="M1539.41,96.99c-.28,0-.5-.22-.5-.5v-34.06c0-.28.22-.5.5-.5s.5.22.5.5v34.06c0,.28-.22.5-.5.5Z"/>
    <path class="cls-5" d="M1552.94,91.53c-.28,0-.5-.22-.5-.5v-23.14c0-.28.22-.5.5-.5s.5.22.5.5v23.14c0,.28-.22.5-.5.5Z"/>
    <path class="cls-5" d="M1566.48,91.53c-.28,0-.5-.22-.5-.5v-23.14c0-.28.22-.5.5-.5s.5.22.5.5v23.14c0,.28-.22.5-.5.5Z"/>
    <path class="cls-5" d="M1580.02,91.53c-.28,0-.5-.22-.5-.5v-23.14c0-.28.22-.5.5-.5s.5.22.5.5v23.14c0,.28-.22.5-.5.5Z"/>
    <path class="cls-5" d="M1593.56,91.53c-.28,0-.5-.22-.5-.5v-23.14c0-.28.22-.5.5-.5s.5.22.5.5v23.14c0,.28-.22.5-.5.5Z"/>
    <path class="cls-5" d="M1607.09,91.53c-.28,0-.5-.22-.5-.5v-23.14c0-.28.22-.5.5-.5s.5.22.5.5v23.14c0,.28-.22.5-.5.5Z"/>
    <path class="cls-5" d="M1620.63,96.99c-.28,0-.5-.22-.5-.5v-34.06c0-.28.22-.5.5-.5s.5.22.5.5v34.06c0,.28-.22.5-.5.5Z"/>
    <path class="cls-5" d="M1634.17,91.53c-.28,0-.5-.22-.5-.5v-23.14c0-.28.22-.5.5-.5s.5.22.5.5v23.14c0,.28-.22.5-.5.5Z"/>
    <path class="cls-5" d="M1647.71,91.53c-.28,0-.5-.22-.5-.5v-23.14c0-.28.22-.5.5-.5s.5.22.5.5v23.14c0,.28-.22.5-.5.5Z"/>
    <path class="cls-5" d="M1661.25,91.53c-.28,0-.5-.22-.5-.5v-23.14c0-.28.22-.5.5-.5s.5.22.5.5v23.14c0,.28-.22.5-.5.5Z"/>
    <path class="cls-5" d="M1674.78,91.53c-.28,0-.5-.22-.5-.5v-23.14c0-.28.22-.5.5-.5s.5.22.5.5v23.14c0,.28-.22.5-.5.5Z"/>
    <path class="cls-5" d="M1688.32,91.53c-.28,0-.5-.22-.5-.5v-23.14c0-.28.22-.5.5-.5s.5.22.5.5v23.14c0,.28-.22.5-.5.5Z"/>
    <path class="cls-5" d="M1701.86,96.99c-.28,0-.5-.22-.5-.5v-34.06c0-.28.22-.5.5-.5s.5.22.5.5v34.06c0,.28-.22.5-.5.5Z"/>
  </g>
  <g>
    <path class="cls-3" d="M122.29,855.7v-37.01c18.5-1.23,27.14-4.93,30.84-13.57,2.06-4.11,2.88-9.46,2.88-16.04v-24.26c0-8.64,0-18.09-1.64-25.91-1.65-7.81-5.35-13.16-12.34-13.16-5.35,0-8.64,2.47-10.28,10.28-2.06,8.22-2.88,20.97-2.88,41.12h-43.59c0-16.86.41-39.89,7.81-58.39,7.4-18.09,20.97-32.07,48.93-32.07s42.35,14.39,49.76,29.61c7.4,15.21,7.81,31.66,7.81,35.36,0,44.82-7.81,66.21-21.38,79.77l-.41.41c21.38,16.86,25.5,48.11,25.5,83.06,0,1.23,0,4.11-.41,8.64-.41,8.64-2.88,21.38-7.4,34.54-4.93,13.16-13.16,25.08-25.91,32.07-6.58,3.7-14.39,5.35-23.85,5.35-27.96,0-42.35-13.98-50.17-32.49-7.81-18.09-8.64-41.12-8.64-57.98h43.59c0,20.15,1.23,32.9,3.7,40.71,2.47,8.22,6.17,10.69,11.51,10.69,6.99,0,10.69-5.35,12.34-12.75,1.65-7.4,1.65-16.86,1.65-25.5,0-9.46,0-18.09.41-25.91,0-14.8-2.88-25.08-12.34-31.25-4.93-2.88-12.34-4.93-21.79-5.35h-3.7Z"/>
    <path class="cls-3" d="M226.32,785.8v-20.97c0-20.15,2.88-39.89,11.51-54.28,8.64-14.39,23.44-23.85,47.7-23.85,22.62,0,37.83,8.64,46.88,21.79,9.05,13.57,12.34,32.49,12.34,53.46,0,30.84-11.51,67.44-25.91,101.57-14.8,34.54-32.07,65.38-43.59,84.71h70.32v44h-120.48v-44c13.57-20.97,25.91-42.35,37.01-63.74,9.46-18.09,18.5-38.65,25.5-59.63,6.99-20.97,12.34-41.53,12.75-60.04,0-8.22-.41-17.68-2.47-24.67-2.06-6.99-5.76-12.34-12.34-12.34-6.17,0-9.87,4.52-11.92,11.1-2.06,6.99-2.88,16.04-2.88,25.91v20.97h-44.41Z"/>
    <path class="cls-3" d="M435.63,809.24c-.41,13.57-5.35,23.03-13.57,30.02-4.11,3.7-10.28,5.35-18.09,5.35-16.45,0-23.85-8.22-28.37-17.68-2.47-4.93-3.7-10.69-3.7-17.68v-87.59c0-13.16,4.94-22.21,13.57-29.61,4.11-3.7,10.28-5.35,18.5-5.35,16.04,0,23.03,9.05,27.55,17.68,2.47,4.93,3.7,10.69,4.11,17.27v87.59ZM392.45,992.22l111.03-302.24h26.32l-109.79,302.24h-27.55ZM410.95,721.65c0-3.7-1.23-6.99-2.88-9.46-.82-1.23-2.06-1.65-4.11-1.65-4.52,0-5.76,2.88-6.99,5.76-.41,1.64-.82,3.29-.41,5.35v87.59c-.41,4.52.41,11.1,7.4,11.1,6.17,0,6.99-6.58,6.99-11.1v-87.59ZM551.18,960.56c-.41,13.57-5.35,22.62-13.57,29.61-4.11,3.7-10.28,5.35-18.09,5.35-16.45,0-23.85-8.64-28.37-17.27-2.47-4.93-3.7-10.69-3.7-17.68v-87.59c0-13.16,4.93-22.62,13.57-30.02,4.11-3.7,10.28-5.35,18.5-5.35,16.04,0,23.03,9.05,27.55,17.68,2.47,5.35,3.7,11.1,4.11,17.68v87.59ZM526.5,872.97c0-3.7-1.23-6.99-2.88-9.46-.82-1.23-2.06-1.65-4.11-1.65-4.52,0-5.76,2.88-6.99,5.76-.41,1.65-.82,3.29-.41,5.35v87.59c-.41,4.52.82,6.99,2.88,9.46.82,1.23,2.47,2.06,4.52,2.06,3.7,0,4.93-2.88,6.17-5.76.41-1.64.82-3.7.82-5.76v-87.59Z"/>
  </g>
  <g>
    <path class="cls-5" d="M1398.52,755.37v-28.37c18.5-3.7,29.61-13.16,37.42-21.38,4.11-4.93,7.4-10.28,9.87-15.63h26.73v302.24h-44.41v-236.86h-29.61Z"/>
    <path class="cls-5" d="M1620.99,930.13c-.41,12.34-2.88,23.44-7.4,32.9-3.7,8.22-9.46,16.04-17.68,22.21-8.22,6.58-19.33,10.28-34.13,10.28s-26.32-3.7-34.54-10.28c-8.22-6.17-13.57-13.98-17.27-22.21-4.52-9.46-6.99-20.56-7.4-32.9v-178.05c.41-11.92,2.88-23.03,7.4-32.49,3.7-8.22,9.05-16.45,17.27-22.62,8.22-6.17,19.74-10.28,34.54-10.28s25.91,4.11,34.13,10.28,13.98,14.39,17.68,22.62c4.52,9.46,6.99,20.56,7.4,32.49v178.05ZM1576.58,752.08c0-8.22-1.64-13.98-5.76-18.92-2.06-2.06-5.35-3.29-9.05-3.29-7.81,0-11.51,5.76-13.16,11.1-1.23,3.29-1.65,6.99-1.65,11.1v178.05c0,8.64,2.06,14.39,6.17,18.92,2.06,2.06,4.94,3.29,8.64,3.29,7.81,0,11.51-4.93,13.16-11.1,1.23-2.88,1.64-6.58,1.64-11.1v-178.05Z"/>
    <path class="cls-5" d="M1709.4,809.24c-.41,13.57-5.35,23.03-13.57,30.02-4.11,3.7-10.28,5.35-18.09,5.35-16.45,0-23.85-8.22-28.37-17.68-2.47-4.93-3.7-10.69-3.7-17.68v-87.59c0-13.16,4.93-22.21,13.57-29.61,4.11-3.7,10.28-5.35,18.5-5.35,16.04,0,23.03,9.05,27.55,17.68,2.47,4.93,3.7,10.69,4.11,17.27v87.59ZM1666.22,992.22l111.03-302.24h26.32l-109.79,302.24h-27.55ZM1684.72,721.65c0-3.7-1.23-6.99-2.88-9.46-.82-1.23-2.06-1.65-4.11-1.65-4.52,0-5.76,2.88-6.99,5.76-.41,1.64-.82,3.29-.41,5.35v87.59c-.41,4.52.41,11.1,7.4,11.1,6.17,0,6.99-6.58,6.99-11.1v-87.59ZM1824.95,960.56c-.41,13.57-5.35,22.62-13.57,29.61-4.11,3.7-10.28,5.35-18.09,5.35-16.45,0-23.85-8.64-28.37-17.27-2.47-4.93-3.7-10.69-3.7-17.68v-87.59c0-13.16,4.93-22.62,13.57-30.02,4.11-3.7,10.28-5.35,18.5-5.35,16.04,0,23.03,9.05,27.55,17.68,2.47,5.35,3.7,11.1,4.11,17.68v87.59ZM1800.27,872.97c0-3.7-1.23-6.99-2.88-9.46-.82-1.23-2.06-1.65-4.11-1.65-4.52,0-5.76,2.88-6.99,5.76-.41,1.65-.82,3.29-.41,5.35v87.59c-.41,4.52.82,6.99,2.88,9.46.82,1.23,2.47,2.06,4.52,2.06,3.7,0,4.93-2.88,6.17-5.76.41-1.64.82-3.7.82-5.76v-87.59Z"/>
  </g>
  <path class="cls-5" d="M1251.92,841.67l121.71-63.45v26.53l-93.26,47.59,93.26,47.59v26.53l-121.71-63.45v-21.33Z"/>
  <g>
    <g>
      <rect class="cls-5" x="959.04" y="1.03" width="2" height="1079.48"/>
      <polygon class="cls-5" points="945.63 1.03 975.26 1.03 960.04 17.66 945.63 1.03"/>
      <polygon class="cls-5" points="975.26 1080.52 945.63 1080.52 960.85 1063.88 975.26 1080.52"/>
    </g>
    <polygon class="cls-5" points="950.85 533.59 943.98 528.69 950.83 522.94 951.31 523.52 945.2 528.64 951.29 532.98 950.85 533.59"/>
    <polygon class="cls-5" points="969.17 533.59 968.69 533.01 974.8 527.89 968.71 523.55 969.15 522.94 976.02 527.84 969.17 533.59"/>
  </g>
</svg>