<?xml version="1.0" encoding="UTF-8"?>
<svg id="Muslims" xmlns="http://www.w3.org/2000/svg" xml:space="preserve" viewBox="0 0 275.2 276.5">
  <path d="M230 241.2a136.3 136.3 0 0 1-129 30.2A138 138 0 0 1 .2 145.3 138 138 0 0 1 229.1 34.6c-27.6-14.9-56.7-19.1-87.2-11.5S87.8 48 70.6 74.3A118.7 118.7 0 0 0 230 241.2z"></path>
  <path d="m258.1 181.9-5.3-3.6c-7-5.1-14.1-10.2-21-15.4-1.5-1.1-2.4-1-3.8 0-7.8 6-15.8 11.8-23.7 17.7-.6.4-1.2 1.6-1.9 1-.6-.5 0-1.5.2-2.2l8.7-28.2c.6-1.9.2-2.8-1.4-3.9L186.2 130c-.6-.4-1.6-.8-1.4-1.5.3-.9 1.4-.6 2.1-.6h28.9c2.4 0 3.4-.8 4.1-3.1l8.9-28c.2-.6.3-1.3.8-1.8.9.1.8.9 1 1.5 3.2 9.6 6.5 19.2 9.6 28.9.6 1.8 1.5 2.5 3.4 2.5h29.3c.7 0 1.7-.3 2 .5.3 1-.8 1.2-1.4 1.7l-24 17.6c-1.3 1-1.5 1.8-1 3.3 3 9 5.8 18 8.7 27.1l1 3.7-.1.1z"></path>
</svg>